<svg xmlns="http://www.w3.org/2000/svg" width="57" height="57" fill="#1e1e1e" fill-rule="evenodd" xmlns:v="https://vecta.io/nano"><path d="M23.321 4.534a9.72 9.72 0 0 0-9.716 9.716 9.72 9.72 0 0 0 9.716 9.716 9.72 9.72 0 0 0 9.716-9.716 9.72 9.72 0 0 0-9.716-9.716zM9.719 14.25c0-7.512 6.09-13.602 13.602-13.602s13.602 6.09 13.602 13.602-6.09 13.602-13.602 13.602S9.719 21.762 9.719 14.25z"/><path d="M23.319 27.852c-10.374 0-18.784 8.41-18.784 18.784 0 1.073-.87 1.943-1.943 1.943S.648 47.71.648 46.636c0-12.521 10.15-22.67 22.67-22.67 1.073 0 1.943.87 1.943 1.943s-.87 1.943-1.943 1.943zm18.133 2.591c-6.081 0-11.011 4.93-11.011 11.011s4.93 11.011 11.011 11.011a10.99 10.99 0 0 0 8.81-4.404c.645-.858 1.863-1.031 2.721-.386s1.031 1.863.386 2.721c-2.715 3.613-7.043 5.956-11.917 5.956a14.9 14.9 0 0 1-14.898-14.898 14.9 14.9 0 0 1 14.898-14.898A14.9 14.9 0 0 1 56.35 41.455c0 1.073-.87 1.943-1.943 1.943s-1.943-.87-1.943-1.943c0-6.081-4.93-11.011-11.011-11.011zm-5.953 16.966c-.759-.759-.759-1.989 0-2.748l9.16-9.16c.759-.759 1.989-.759 2.748 0s.759 1.989 0 2.748l-9.16 9.16c-.759.759-1.989.759-2.748 0z"/><path d="M47.407 47.409c-.759.759-1.989.759-2.748 0l-9.16-9.16c-.759-.759-.759-1.989 0-2.748s1.989-.759 2.748 0l9.16 9.16c.759.759.759 1.989 0 2.748z"/></svg>