<svg xmlns="http://www.w3.org/2000/svg" width="36" height="36" fill="none" stroke="#1e1e1e" stroke-width="2.5" stroke-miterlimit="10" stroke-linejoin="round" xmlns:v="https://vecta.io/nano"><path d="M11.437 34.199h13.127c6.596 0 7.778-2.642 8.122-5.858l1.231-13.127c.443-4.004-.706-7.269-7.712-7.269H9.796c-7.007 0-8.155 3.265-7.712 7.269l1.231 13.127c.345 3.216 1.526 5.858 8.122 5.858z"/><path d="M11.438 7.945V6.632c0-2.904 0-5.251 5.251-5.251h2.625c5.251 0 5.251 2.346 5.251 5.251v1.313" stroke-linecap="round"/><path d="M21.282 19.431v1.641.033c0 1.789-.016 3.249-3.282 3.249-3.249 0-3.282-1.444-3.282-3.233v-1.69c0-1.641 0-1.641 1.641-1.641h3.282c1.641 0 1.641 0 1.641 1.641z"/><path d="M33.834 16.149c-3.79 2.757-8.122 4.398-12.553 4.956M2.602 16.592c3.692 2.527 7.86 4.053 12.11 4.529" stroke-linecap="round"/></svg>