<svg width="428" height="395" viewBox="0 0 428 395" fill="none" xmlns="http://www.w3.org/2000/svg">
<line x1="23.5" y1="1" x2="23.5" y2="394" stroke="#F1F1F1" stroke-width="2" stroke-linecap="round"/>
<line x1="74.5" y1="1" x2="74.5" y2="394" stroke="#F1F1F1" stroke-width="2" stroke-linecap="round"/>
<line x1="125.5" y1="1" x2="125.5" y2="394" stroke="#F1F1F1" stroke-width="2" stroke-linecap="round"/>
<line x1="176.5" y1="1" x2="176.5" y2="394" stroke="#F1F1F1" stroke-width="2" stroke-linecap="round"/>
<line x1="227.5" y1="1" x2="227.5" y2="394" stroke="#F1F1F1" stroke-width="2" stroke-linecap="round"/>
<line x1="278.5" y1="1" x2="278.5" y2="394" stroke="#F1F1F1" stroke-width="2" stroke-linecap="round"/>
<line x1="329.5" y1="1" x2="329.5" y2="394" stroke="#F1F1F1" stroke-width="2" stroke-linecap="round"/>
<line x1="380.5" y1="1" x2="380.5" y2="394" stroke="#F1F1F1" stroke-width="2" stroke-linecap="round"/>
<line x1="453.5" y1="51" x2="-2.5" y2="51" stroke="#F1F1F1" stroke-width="2" stroke-linecap="round"/>
<line x1="453.5" y1="100" x2="-2.5" y2="100" stroke="#F1F1F1" stroke-width="2" stroke-linecap="round"/>
<line x1="453.5" y1="149" x2="-2.5" y2="149" stroke="#F1F1F1" stroke-width="2" stroke-linecap="round"/>
<line x1="453.5" y1="198" x2="-2.5" y2="198" stroke="#F1F1F1" stroke-width="2" stroke-linecap="round"/>
<line x1="453.5" y1="247" x2="-2.5" y2="247" stroke="#F1F1F1" stroke-width="2" stroke-linecap="round"/>
<line x1="453.5" y1="296" x2="-2.5" y2="296" stroke="#F1F1F1" stroke-width="2" stroke-linecap="round"/>
<line x1="453.5" y1="345" x2="-2.5" y2="345" stroke="#F1F1F1" stroke-width="2" stroke-linecap="round"/>
</svg>
