<svg xmlns="http://www.w3.org/2000/svg" width="32" height="29" fill="#9c9c9c" xmlns:v="https://vecta.io/nano"><path d="M23.442 28.148H8.558c-.61 0-1.116-.506-1.116-1.116s.506-1.116 1.116-1.116h14.884c4.257 0 6.325-2.069 6.325-6.326V9.172c0-4.257-2.069-6.326-6.325-6.326H8.558c-4.257 0-6.326 2.069-6.326 6.326 0 .61-.506 1.116-1.116 1.116S0 9.782 0 9.172C0 3.739 3.126.614 8.558.614h14.884C28.874.614 32 3.739 32 9.172V19.59c0 5.433-3.126 8.558-8.558 8.558zm-7.444-12.472c-1.25 0-2.515-.387-3.483-1.176l-4.659-3.721c-.476-.387-.566-1.086-.179-1.563s1.087-.566 1.563-.179l4.659 3.721c1.131.908 3.051.908 4.182 0l4.659-3.721a1.1 1.1 0 0 1 1.563.179 1.1 1.1 0 0 1-.179 1.563L19.466 14.5c-.952.789-2.218 1.176-3.468 1.176zm-5.951 6.519h-8.93c-.61 0-1.116-.506-1.116-1.116s.506-1.116 1.116-1.116h8.93c.61 0 1.116.506 1.116 1.116s-.506 1.116-1.116 1.116zm-4.466-5.954H1.116c-.61 0-1.116-.506-1.116-1.116s.506-1.116 1.116-1.116h4.465c.61 0 1.116.506 1.116 1.116s-.506 1.116-1.116 1.116z"/></svg>