<svg xmlns="http://www.w3.org/2000/svg" width="33" height="34" fill="#1e1e1e" xmlns:v="https://vecta.io/nano"><path d="M4.125 25.131h10.313v2.063H4.125v-2.062zm0-6.187h10.313v2.063H4.125v-2.062zm22.688-4.126H6.188a2.06 2.06 0 0 1-2.062-2.062V6.568A2.06 2.06 0 0 1 4.73 5.11c.387-.386.911-.604 1.458-.604h20.625a2.06 2.06 0 0 1 1.458.604c.386.387.604.911.604 1.458v6.187a2.06 2.06 0 0 1-2.062 2.062zM6.188 6.568v6.187h20.625V6.568H6.188zm20.625 22.688h-6.187a2.06 2.06 0 0 1-2.062-2.063v-6.187c0-.547.217-1.072.604-1.459a2.06 2.06 0 0 1 1.458-.604h6.188a2.06 2.06 0 0 1 2.062 2.063v6.187c0 .547-.217 1.072-.604 1.459a2.06 2.06 0 0 1-1.458.604zm-6.187-8.25v6.187h6.188v-6.187h-6.187z"/></svg>