<svg width="177" height="178" viewBox="0 0 177 178" fill="none" xmlns="http://www.w3.org/2000/svg">
<path d="M88.5 30C56.2444 30 30 56.4687 30 89C30 121.531 56.2444 148 88.5 148C120.756 148 147 121.531 147 89C147 56.4687 120.756 30 88.5 30ZM121.195 73.4737L83.8083 110.885C81.609 113.103 78.0902 113.251 75.7444 111.033L55.9511 92.8446C53.6053 90.6266 53.4586 86.9298 55.5113 84.5639C57.7105 82.198 61.3759 82.0501 63.7218 84.2682L79.4098 98.7594L112.838 65.0451C115.184 62.6792 118.85 62.6792 121.195 65.0451C123.541 67.411 123.541 71.1078 121.195 73.4737Z" fill="#0A089A"/>
<path d="M88.5 15C47.84 15 15 48.305 15 89C15 129.695 47.84 163 88.5 163C129.16 163 162 129.695 162 89C162 48.305 129.16 15 88.5 15Z" stroke="#0A089A" stroke-opacity="0.1" stroke-width="30"/>
</svg>
