<svg xmlns="http://www.w3.org/2000/svg" width="39" height="38" fill="none" stroke="#9c9c9c" stroke-width="2.5" stroke-linejoin="round" xmlns:v="https://vecta.io/nano"><path d="M30.059 10.362c-.105-.018-.228-.018-.333 0a4.51 4.51 0 0 1-4.347-4.523 4.51 4.51 0 0 1 4.523-4.523c2.507 0 4.523 2.033 4.523 4.523-.018 2.454-1.946 4.435-4.365 4.523z"/><path d="M28.242 23.124c2.402.403 5.049-.017 6.907-1.262 2.472-1.648 2.472-4.347 0-5.995-1.876-1.245-4.558-1.665-6.959-1.245" stroke-linecap="round"/><path d="M8.955 10.362c.105-.018.228-.018.333 0a4.51 4.51 0 0 0 4.347-4.523 4.51 4.51 0 0 0-4.523-4.523c-2.507 0-4.523 2.033-4.523 4.523.018 2.454 1.946 4.435 4.365 4.523z"/><path d="M10.761 23.124c-2.402.403-5.049-.017-6.907-1.262-2.472-1.648-2.472-4.347 0-5.995 1.876-1.245 4.558-1.665 6.959-1.245" stroke-linecap="round"/><path d="M19.524 23.457c-.105-.018-.228-.018-.333 0a4.51 4.51 0 0 1-4.347-4.523 4.51 4.51 0 0 1 4.523-4.523c2.507 0 4.523 2.034 4.523 4.523-.017 2.454-1.946 4.453-4.365 4.523z"/><path d="M24.627 28.979c-2.787-1.858-7.398-1.858-10.203 0-2.472 1.648-2.472 4.348 0 5.995 2.805 1.876 7.398 1.876 10.203 0" stroke-linecap="round"/></svg>