<svg width="23" height="31" viewBox="0 0 23 31" fill="none" xmlns="http://www.w3.org/2000/svg">
<path d="M22.8128 6.57608L16.4239 0.187174C16.3041 0.0673828 16.1419 0 15.9722 0H2.55552C1.14677 0 0 1.14611 0 2.55558V28.1112C0 29.5206 1.14677 30.6667 2.55558 30.6667H20.4445C21.8532 30.6667 23 29.5206 23 28.1111V7.02776C23 6.85807 22.9326 6.69588 22.8128 6.57608ZM16.6111 2.18123L20.8188 6.38891H17.8888C17.1838 6.38891 16.6111 5.81553 16.6111 5.11115V2.18123ZM21.7222 28.1111C21.7222 28.8155 21.1495 29.3888 20.4445 29.3888H2.55558C1.85054 29.3888 1.27782 28.8155 1.27782 28.1111V2.55558C1.27782 1.8512 1.8506 1.27782 2.55558 1.27782H15.3333V5.11115C15.3333 6.52056 16.4801 7.66667 17.8889 7.66667H21.7222V28.1111Z" fill="#9C9C9C"/>
<path d="M18.5304 17.8906H4.47485C4.1217 17.8906 3.83594 18.1764 3.83594 18.5295C3.83594 18.8827 4.1217 19.1684 4.47485 19.1684H18.5304C18.8836 19.1684 19.1693 18.8827 19.1693 18.5295C19.1693 18.1764 18.8835 17.8906 18.5304 17.8906Z" fill="#9C9C9C"/>
<path d="M18.5304 14.0566H4.47485C4.1217 14.0566 3.83594 14.3424 3.83594 14.6955C3.83594 15.0487 4.1217 15.3345 4.47485 15.3345H18.5304C18.8836 15.3345 19.1693 15.0487 19.1693 14.6955C19.1693 14.3424 18.8835 14.0566 18.5304 14.0566Z" fill="#9C9C9C"/>
<path d="M18.5304 21.7227H4.47485C4.1217 21.7227 3.83594 22.0084 3.83594 22.3616C3.83594 22.7147 4.1217 23.0005 4.47485 23.0005H18.5304C18.8836 23.0005 19.1693 22.7147 19.1693 22.3616C19.1693 22.0084 18.8835 21.7227 18.5304 21.7227Z" fill="#9C9C9C"/>
<path d="M12.1415 25.5566H4.47485C4.1217 25.5566 3.83594 25.8424 3.83594 26.1956C3.83594 26.5487 4.1217 26.8345 4.47485 26.8345H12.1415C12.4947 26.8345 12.7804 26.5487 12.7804 26.1956C12.7804 25.8424 12.4947 25.5566 12.1415 25.5566Z" fill="#9C9C9C"/>
<path d="M10.2227 10.8616C10.2227 11.2147 10.5084 11.5005 10.8616 11.5005H18.5282C18.8814 11.5005 19.1671 11.2147 19.1671 10.8616C19.1671 10.5084 18.8814 10.2227 18.5282 10.2227H10.8616C10.5084 10.2227 10.2227 10.5085 10.2227 10.8616Z" fill="#9C9C9C"/>
<path d="M5.7526 10.2228H4.47485C4.1217 10.2228 3.83594 10.5085 3.83594 10.8617C3.83594 11.2148 4.1217 11.5006 4.47485 11.5006H5.11376C5.11376 11.8537 5.39952 12.1395 5.75266 12.1395C6.10581 12.1395 6.39157 11.8537 6.39157 11.5006V11.3829C7.13356 11.1182 7.66927 10.4157 7.66927 9.58387C7.66927 8.52695 6.80953 7.6672 5.7526 7.6672C5.40072 7.6672 5.11369 7.38084 5.11369 7.02829C5.11369 6.6758 5.40072 6.38938 5.7526 6.38938H7.03036C7.38351 6.38938 7.66927 6.10362 7.66927 5.75047C7.66927 5.39733 7.38351 5.11157 7.03036 5.11157H6.39145C6.39145 4.75842 6.10569 4.47266 5.75254 4.47266C5.3994 4.47266 5.11364 4.75842 5.11364 5.11157V5.22926C4.37165 5.49394 3.83594 6.19646 3.83594 7.02829C3.83594 8.08521 4.69568 8.94496 5.7526 8.94496C6.10449 8.94496 6.39151 9.23132 6.39151 9.58387C6.39151 9.93641 6.10449 10.2228 5.7526 10.2228Z" fill="#9C9C9C"/>
</svg>
