<svg width="25" height="26" viewBox="0 0 25 26" fill="none" xmlns="http://www.w3.org/2000/svg">
<path d="M12.4996 16.2083C14.2318 16.2083 15.636 14.8041 15.636 13.0719C15.636 11.3397 14.2318 9.93555 12.4996 9.93555C10.7675 9.93555 9.36328 11.3397 9.36328 13.0719C9.36328 14.8041 10.7675 16.2083 12.4996 16.2083Z" stroke="#9C9C9C" stroke-width="1.5" stroke-linecap="round" stroke-linejoin="round"/>
<path d="M20.2364 16.2086C20.0972 16.524 20.0557 16.8737 20.1172 17.2129C20.1787 17.552 20.3403 17.865 20.5814 18.1114L20.6441 18.1741C20.8385 18.3683 20.9927 18.5989 21.0979 18.8527C21.2032 19.1065 21.2573 19.3786 21.2573 19.6534C21.2573 19.9282 21.2032 20.2003 21.0979 20.4541C20.9927 20.7079 20.8385 20.9385 20.6441 21.1327C20.4499 21.3271 20.2193 21.4813 19.9655 21.5866C19.7116 21.6918 19.4395 21.746 19.1648 21.746C18.89 21.746 18.6179 21.6918 18.3641 21.5866C18.1102 21.4813 17.8796 21.3271 17.6855 21.1327L17.6227 21.07C17.3763 20.829 17.0634 20.6673 16.7243 20.6058C16.3851 20.5443 16.0353 20.5858 15.72 20.725C15.4108 20.8575 15.1471 21.0776 14.9613 21.3581C14.7756 21.6385 14.6759 21.9672 14.6745 22.3036V22.4814C14.6745 23.0359 14.4543 23.5677 14.0621 23.9599C13.67 24.352 13.1382 24.5723 12.5836 24.5723C12.0291 24.5723 11.4973 24.352 11.1051 23.9599C10.713 23.5677 10.4927 23.0359 10.4927 22.4814V22.3873C10.4846 22.0412 10.3726 21.7056 10.1713 21.4241C9.9699 21.1426 9.6885 20.9281 9.36364 20.8086C9.04831 20.6695 8.69852 20.6279 8.35938 20.6894C8.02024 20.7509 7.7073 20.9126 7.46091 21.1536L7.39818 21.2164C7.20399 21.4108 6.97339 21.565 6.71956 21.6702C6.46572 21.7754 6.19364 21.8296 5.91886 21.8296C5.64409 21.8296 5.372 21.7754 5.11817 21.6702C4.86434 21.565 4.63373 21.4108 4.43955 21.2164C4.24514 21.0222 4.09092 20.7916 3.98569 20.5377C3.88047 20.2839 3.82631 20.0118 3.82631 19.737C3.82631 19.4623 3.88047 19.1902 3.98569 18.9363C4.09092 18.6825 4.24514 18.4519 4.43955 18.2577L4.50227 18.195C4.74329 17.9486 4.90497 17.6357 4.96646 17.2965C5.02795 16.9574 4.98644 16.6076 4.84727 16.2923C4.71475 15.9831 4.4947 15.7193 4.21421 15.5336C3.93373 15.3478 3.60505 15.2482 3.26864 15.2468H3.09091C2.53637 15.2468 2.00453 15.0265 1.61241 14.6344C1.22029 14.2423 1 13.7104 1 13.1559C1 12.6014 1.22029 12.0695 1.61241 11.6774C2.00453 11.2853 2.53637 11.065 3.09091 11.065H3.185C3.53104 11.0569 3.86664 10.9449 4.14818 10.7435C4.42971 10.5422 4.64416 10.2608 4.76364 9.9359C4.9028 9.62058 4.94432 9.27079 4.88282 8.93165C4.82133 8.59251 4.65965 8.27957 4.41864 8.03317L4.35591 7.97045C4.1615 7.77626 4.00728 7.54565 3.90206 7.29182C3.79683 7.03799 3.74267 6.76591 3.74267 6.49113C3.74267 6.21635 3.79683 5.94427 3.90206 5.69044C4.00728 5.4366 4.1615 5.206 4.35591 5.01181C4.5501 4.81741 4.7807 4.66318 5.03453 4.55796C5.28837 4.45274 5.56045 4.39858 5.83523 4.39858C6.11 4.39858 6.38209 4.45274 6.63592 4.55796C6.88975 4.66318 7.12036 4.81741 7.31455 5.01181L7.37727 5.07454C7.62366 5.31555 7.93661 5.47723 8.27575 5.53872C8.61489 5.60022 8.96467 5.5587 9.28 5.41954H9.36364C9.67285 5.28701 9.93656 5.06696 10.1223 4.78648C10.3081 4.50599 10.4077 4.17732 10.4091 3.8409V3.66317C10.4091 3.10863 10.6294 2.5768 11.0215 2.18468C11.4136 1.79256 11.9455 1.57227 12.5 1.57227C13.0545 1.57227 13.5864 1.79256 13.9785 2.18468C14.3706 2.5768 14.5909 3.10863 14.5909 3.66317V3.75727C14.5923 4.09368 14.6919 4.42236 14.8777 4.70284C15.0634 4.98333 15.3271 5.20338 15.6364 5.3359C15.9517 5.47507 16.3015 5.51658 16.6406 5.45509C16.9798 5.3936 17.2927 5.23192 17.5391 4.9909L17.6018 4.92817C17.796 4.73377 18.0266 4.57955 18.2804 4.47432C18.5343 4.3691 18.8064 4.31494 19.0811 4.31494C19.3559 4.31494 19.628 4.3691 19.8818 4.47432C20.1357 4.57955 20.3663 4.73377 20.5605 4.92817C20.7549 5.12236 20.9091 5.35297 21.0143 5.6068C21.1195 5.86063 21.1737 6.13271 21.1737 6.40749C21.1737 6.68227 21.1195 6.95435 21.0143 7.20819C20.9091 7.46202 20.7549 7.69262 20.5605 7.88681L20.4977 7.94954C20.2567 8.19593 20.095 8.50887 20.0335 8.84801C19.972 9.18715 20.0136 9.53694 20.1527 9.85227V9.9359C20.2853 10.2451 20.5053 10.5088 20.7858 10.6946C21.0663 10.8803 21.3949 10.98 21.7314 10.9814H21.9091C22.4636 10.9814 22.9955 11.2016 23.3876 11.5938C23.7797 11.9859 24 12.5177 24 13.0723C24 13.6268 23.7797 14.1586 23.3876 14.5508C22.9955 14.9429 22.4636 15.1632 21.9091 15.1632H21.815C21.4786 15.1645 21.1499 15.2642 20.8694 15.4499C20.5889 15.6357 20.3689 15.8994 20.2364 16.2086Z" stroke="#9C9C9C" stroke-width="1.5" stroke-linecap="round" stroke-linejoin="round"/>
</svg>
