<svg width="22" height="26" viewBox="0 0 22 26" fill="none" xmlns="http://www.w3.org/2000/svg">
<path d="M11 25.0377C10.0724 25.0377 9.16865 24.5774 8.55027 23.7718L7.34919 22.2182C7.09946 21.896 6.76649 21.7118 6.40973 21.6888C6.05297 21.6773 5.69622 21.8269 5.41081 22.1146L4.73297 21.5277L5.38703 22.1146C3.67459 23.8869 2.35459 23.7488 1.72432 23.5071C1.08216 23.2655 0 22.4714 0 19.9165V6.95822C0 1.84854 1.52216 0.294922 6.50487 0.294922H15.4951C20.4778 0.294922 22 1.84854 22 6.95822V19.9165C22 22.4599 20.9178 23.2539 20.2757 23.5071C19.6454 23.7488 18.3373 23.8869 16.613 22.1146C16.3276 21.8154 15.9827 21.6543 15.6022 21.6888C15.2454 21.7118 14.9005 21.896 14.6508 22.2182L13.4497 23.7718C12.8314 24.5774 11.9276 25.0377 11 25.0377ZM6.33838 19.9511H6.49297C7.37297 19.9971 8.20541 20.4459 8.76432 21.1709L9.96541 22.7246C10.5481 23.4726 11.44 23.4726 12.0227 22.7246L13.2238 21.1709C13.7946 20.4459 14.6151 19.9971 15.507 19.9511C16.387 19.905 17.267 20.2618 17.9092 20.9293C18.813 21.8614 19.4076 21.9765 19.6097 21.896C19.8951 21.7809 20.2043 21.1134 20.2043 19.9165V6.95822C20.2043 2.80373 19.4551 2.02116 15.4832 2.02116H6.50487C2.53297 2.02116 1.78378 2.80373 1.78378 6.95822V19.9165C1.78378 21.1249 2.09297 21.7924 2.37838 21.896C2.58054 21.9765 3.17513 21.8614 4.07892 20.9293C4.72108 20.2963 5.51784 19.9511 6.33838 19.9511Z" fill="#9C9C9C"/>
<path d="M15.7609 7.77507H6.24736C5.75979 7.77507 5.35547 7.38379 5.35547 6.91195C5.35547 6.44011 5.75979 6.04883 6.24736 6.04883H15.7609C16.2484 6.04883 16.6528 6.44011 16.6528 6.91195C16.6528 7.38379 16.2484 7.77507 15.7609 7.77507Z" fill="#9C9C9C"/>
<path d="M14.5661 12.3786H7.43095C6.94339 12.3786 6.53906 11.9873 6.53906 11.5155C6.53906 11.0436 6.94339 10.6523 7.43095 10.6523H14.5661C15.0537 10.6523 15.458 11.0436 15.458 11.5155C15.458 11.9873 15.0537 12.3786 14.5661 12.3786Z" fill="#9C9C9C"/>
</svg>
