<svg xmlns="http://www.w3.org/2000/svg" width="30" height="31" fill="none" xmlns:v="https://vecta.io/nano"><path fill-rule="evenodd" d="M4.154.317h-.116C3.511.316 3.056.316 2.654.412A3.46 3.46 0 0 0 .096 2.97C-.001 3.373 0 3.827 0 4.354v.116 5.538.116c-.001.527-.001.982.096 1.384a3.46 3.46 0 0 0 2.558 2.558c.403.097.857.096 1.384.096h.116 5.538.116c.527.001.982.001 1.384-.096a3.46 3.46 0 0 0 2.558-2.558c.097-.402.096-.857.096-1.384v-.116V4.47v-.116c.001-.527.001-.982-.096-1.384A3.46 3.46 0 0 0 11.193.412C10.79.316 10.336.316 9.809.317h-.116-5.538zm-.962 2.34c.099-.024.251-.032.962-.032h5.538l.962.032c.422.101.751.431.853.853.024.099.032.251.032.962v5.538l-.032.962c-.101.422-.431.751-.853.853-.099.024-.251.032-.962.032H4.154c-.71 0-.862-.008-.962-.032-.422-.101-.751-.431-.853-.853-.024-.099-.032-.251-.032-.962V4.47l.032-.962c.101-.422.431-.751.853-.853zM20.308.317h-.116c-.527-.001-.982-.001-1.384.096A3.46 3.46 0 0 0 16.25 2.97c-.097.403-.096.857-.096 1.384v.116 5.538.116c0 .527-.001.982.096 1.384a3.46 3.46 0 0 0 2.558 2.558c.403.097.857.096 1.384.096h.116 5.538.116c.527.001.982.001 1.384-.096a3.46 3.46 0 0 0 2.558-2.558c.096-.402.096-.857.096-1.384v-.116V4.47v-.116c.001-.527.001-.982-.096-1.384A3.46 3.46 0 0 0 27.347.412c-.403-.097-.857-.096-1.384-.096h-.116-5.538zm-.962 2.34c.099-.024.251-.032.962-.032h5.538l.962.032c.422.101.751.431.853.853.024.099.032.251.032.962v5.538l-.032.962c-.101.422-.431.751-.853.853-.099.024-.251.032-.962.032h-5.538c-.71 0-.862-.008-.962-.032-.422-.101-.751-.431-.853-.853-.024-.099-.032-.251-.032-.962V4.47l.032-.962c.101-.422.431-.751.853-.853zM4.038 16.47h.116 5.538.116c.527-.001.982-.001 1.384.096a3.46 3.46 0 0 1 2.558 2.558c.097.403.096.857.096 1.384v.116 5.538.116c.001.527.001.982-.096 1.384a3.46 3.46 0 0 1-2.558 2.558c-.402.096-.857.096-1.384.096h-.116-5.538-.116c-.527.001-.982.001-1.384-.096a3.46 3.46 0 0 1-2.558-2.558C-.001 27.26 0 26.806 0 26.279v-.116-5.538-.116c-.001-.527-.001-.982.096-1.384a3.46 3.46 0 0 1 2.558-2.558c.403-.097.857-.096 1.384-.096zm.116 2.308l-.962.032c-.422.101-.751.431-.853.853-.024.099-.032.251-.032.962v5.538l.032.962c.101.422.431.751.853.853.099.024.251.032.962.032h5.538l.962-.032c.422-.101.751-.431.853-.853.024-.099.032-.251.032-.962v-5.538l-.032-.962c-.101-.422-.431-.751-.853-.853-.099-.024-.251-.032-.962-.032H4.154zm16.154-2.308h-.116c-.527-.001-.982-.001-1.384.096a3.46 3.46 0 0 0-2.558 2.558c-.097.403-.096.857-.096 1.384v.116 5.538.116c0 .527-.001.982.096 1.384a3.46 3.46 0 0 0 2.558 2.558c.403.096.857.096 1.384.096h.116 5.538.116c.527.001.982.001 1.384-.096 1.266-.304 2.254-1.292 2.558-2.558.096-.403.096-.857.096-1.384v-.116-5.538-.116c.001-.527.001-.982-.096-1.384a3.46 3.46 0 0 0-2.558-2.558c-.403-.097-.857-.096-1.384-.096h-.116-5.538zm-.962 2.339c.099-.024.251-.032.962-.032h5.538l.962.032c.422.101.751.431.853.853.024.099.032.251.032.962v5.538l-.032.962c-.101.422-.431.751-.853.853-.099.024-.251.032-.962.032h-5.538c-.71 0-.862-.008-.962-.032-.422-.101-.751-.431-.853-.853-.024-.099-.032-.251-.032-.962v-5.538l.032-.962c.101-.422.431-.751.853-.853z" fill="#9c9c9c"/></svg>