<svg width="23" height="24" viewBox="0 0 23 24" fill="none" xmlns="http://www.w3.org/2000/svg">
<mask id="mask0_1552_11004" style="mask-type:luminance" maskUnits="userSpaceOnUse" x="0" y="0" width="23" height="24">
<path d="M0 0.572266H23V23.5723H0V0.572266Z" fill="white"/>
</mask>
<g mask="url(#mask0_1552_11004)">
<path d="M11.4989 22.7517C17.3966 22.7517 22.1775 17.9708 22.1775 12.0731C22.1775 6.17549 17.3966 1.39453 11.4989 1.39453C5.60127 1.39453 0.820312 6.17549 0.820312 12.0731C0.820312 17.9708 5.60127 22.7517 11.4989 22.7517Z" stroke="#1E1E1E" stroke-width="1.5" stroke-linecap="round" stroke-linejoin="round"/>
<path d="M9.03516 9.60882C9.03516 9.12144 9.17968 8.64499 9.45047 8.23975C9.72125 7.83449 10.1061 7.51863 10.5564 7.33212C11.0067 7.1456 11.5022 7.09679 11.9802 7.19188C12.4582 7.28697 12.8973 7.52167 13.242 7.86631C13.5866 8.21095 13.8213 8.65003 13.9164 9.12807C14.0115 9.60609 13.9627 10.1016 13.7761 10.5519C13.5896 11.0022 13.2738 11.387 12.8685 11.6578C12.4633 11.9286 11.9868 12.0731 11.4994 12.0731V13.716" stroke="#1E1E1E" stroke-width="1.5" stroke-linecap="round" stroke-linejoin="round"/>
<path d="M11.4978 16.1816C11.2541 16.1816 11.0159 16.2539 10.8132 16.3893C10.6106 16.5247 10.4527 16.7171 10.3594 16.9423C10.2662 17.1674 10.2418 17.4151 10.2893 17.6541C10.3368 17.8932 10.4542 18.1127 10.6265 18.285C10.7988 18.4573 11.0184 18.5748 11.2574 18.6223C11.4964 18.6697 11.7442 18.6454 11.9693 18.5521C12.1944 18.4588 12.3869 18.3009 12.5223 18.0984C12.6576 17.8956 12.7299 17.6574 12.7299 17.4138C12.7257 17.0883 12.5945 16.7774 12.3643 16.5472C12.1342 16.3171 11.8232 16.1859 11.4978 16.1816Z" fill="#1E1E1E"/>
</g>
</svg>
