<svg width="25" height="25" viewBox="0 0 25 25" fill="none" xmlns="http://www.w3.org/2000/svg">
<path d="M21.701 10.6063C21.701 5.52527 17.582 1.40625 12.5009 1.40625C7.4198 1.40625 3.30078 5.52527 3.30078 10.6063" stroke="#1E1E1E" stroke-width="1.5" stroke-linecap="round" stroke-linejoin="round"/>
<path d="M1 15.7116V13.5532C1 12.4978 1.71829 11.5779 2.74219 11.3219L4.74269 10.8217C5.17819 10.7128 5.60004 11.0422 5.60004 11.4912V17.7737C5.60004 18.2226 5.17819 18.552 4.74269 18.4431L2.74219 17.9429C1.71829 17.687 1 16.7671 1 15.7116Z" stroke="#1E1E1E" stroke-width="1.5"/>
<path d="M23.9985 15.7116V13.5532C23.9985 12.4978 23.2802 11.5779 22.2563 11.3219L20.2558 10.8217C19.8203 10.7128 19.3984 11.0422 19.3984 11.4912V17.7737C19.3984 18.2226 19.8203 18.552 20.2558 18.4431L22.2563 17.9429C23.2802 17.687 23.9985 16.7671 23.9985 15.7116Z" stroke="#1E1E1E" stroke-width="1.5"/>
<path d="M21.7001 18.6582V19.2332C21.7001 20.5035 20.6703 21.5332 19.4 21.5332H15.375" stroke="#1E1E1E" stroke-width="1.5"/>
<path d="M14.2258 23.2567H10.7758C9.82309 23.2567 9.05078 22.4843 9.05078 21.5317C9.05078 20.579 9.82309 19.8066 10.7758 19.8066H14.2258C15.1785 19.8066 15.9508 20.579 15.9508 21.5317C15.9508 22.4843 15.1785 23.2567 14.2258 23.2567Z" stroke="#1E1E1E" stroke-width="1.5"/>
</svg>
