<svg width="23" height="24" viewBox="0 0 23 24" fill="none" xmlns="http://www.w3.org/2000/svg">
<path fill-rule="evenodd" clip-rule="evenodd" d="M3.1847 0.500108L3.09565 0.500055C2.69147 0.499669 2.34306 0.499336 2.03441 0.573442C1.06404 0.806394 0.306394 1.56404 0.0734418 2.53441C-0.000663566 2.84306 -0.000330962 3.19147 5.47273e-05 3.59565L0.00010777 3.6847V7.93082L5.47273e-05 8.01986C-0.000330962 8.42404 -0.000663566 8.77247 0.0734418 9.08111C0.306394 10.0515 1.06404 10.8091 2.03441 11.0421C2.34306 11.1162 2.69147 11.1158 3.09565 11.1155L3.1847 11.1154H7.43082L7.51986 11.1155C7.92404 11.1158 8.27247 11.1162 8.58111 11.0421C9.55147 10.8091 10.3091 10.0515 10.5421 9.08111C10.6162 8.77247 10.6158 8.42404 10.6155 8.01986L10.6154 7.93082V3.6847L10.6155 3.59565C10.6158 3.19147 10.6162 2.84306 10.5421 2.53441C10.3091 1.56404 9.55147 0.806394 8.58111 0.573442C8.27247 0.499336 7.92404 0.499669 7.51986 0.500055L7.43082 0.500108H3.1847ZM2.44743 2.29377C2.52358 2.27548 2.64017 2.26932 3.1847 2.26932H7.43082C7.97536 2.26932 8.09195 2.27548 8.16808 2.29377C8.49155 2.37143 8.74409 2.62396 8.82176 2.94743C8.84003 3.02358 8.84619 3.14017 8.84619 3.6847V7.93082C8.84619 8.47536 8.84003 8.59195 8.82176 8.66808C8.74409 8.99155 8.49155 9.24409 8.16808 9.32176C8.09195 9.34003 7.97536 9.34619 7.43082 9.34619H3.1847C2.64017 9.34619 2.52358 9.34003 2.44743 9.32176C2.12396 9.24409 1.87143 8.99155 1.79377 8.66808C1.77548 8.59195 1.76932 8.47536 1.76932 7.93082V3.6847C1.76932 3.14017 1.77548 3.02358 1.79377 2.94743C1.87143 2.62396 2.12396 2.37143 2.44743 2.29377ZM15.5692 0.500108L15.4802 0.500055C15.076 0.499669 14.7276 0.499336 14.4189 0.573442C13.4486 0.806394 12.6909 1.56404 12.458 2.53441C12.3838 2.84306 12.3842 3.19147 12.3846 3.59565L12.3846 3.6847V7.93082L12.3846 8.01986C12.3842 8.42404 12.3838 8.77247 12.458 9.08111C12.6909 10.0515 13.4486 10.8091 14.4189 11.0421C14.7276 11.1162 15.076 11.1158 15.4802 11.1155L15.5692 11.1154H19.8153L19.9043 11.1155C20.3086 11.1158 20.6569 11.1162 20.9657 11.0421C21.9359 10.8091 22.6937 10.0515 22.9267 9.08111C23.0006 8.77247 23.0004 8.42404 22.9999 8.01986V7.93082V3.6847V3.59565C23.0004 3.19147 23.0006 2.84306 22.9267 2.53441C22.6937 1.56404 21.9359 0.806394 20.9657 0.573442C20.6569 0.499336 20.3086 0.499669 19.9043 0.500055L19.8153 0.500108H15.5692ZM14.8319 2.29377C14.9081 2.27548 15.0247 2.26932 15.5692 2.26932H19.8153C20.3599 2.26932 20.4765 2.27548 20.5526 2.29377C20.876 2.37143 21.1286 2.62396 21.2063 2.94743C21.2245 3.02358 21.2307 3.14017 21.2307 3.6847V7.93082C21.2307 8.47536 21.2245 8.59195 21.2063 8.66808C21.1286 8.99155 20.876 9.24409 20.5526 9.32176C20.4765 9.34003 20.3599 9.34619 19.8153 9.34619H15.5692C15.0247 9.34619 14.9081 9.34003 14.8319 9.32176C14.5085 9.24409 14.2559 8.99155 14.1783 8.66808C14.16 8.59195 14.1538 8.47536 14.1538 7.93082V3.6847C14.1538 3.14017 14.16 3.02358 14.1783 2.94743C14.2559 2.62396 14.5085 2.37143 14.8319 2.29377ZM3.09565 12.8846L3.1847 12.8846H7.43082L7.51986 12.8846C7.92404 12.8842 8.27247 12.8838 8.58111 12.958C9.55147 13.1909 10.3091 13.9486 10.5421 14.9189C10.6162 15.2276 10.6158 15.576 10.6155 15.9802L10.6154 16.0692V20.3153L10.6155 20.4043C10.6158 20.8086 10.6162 21.1569 10.5421 21.4657C10.3091 22.4359 9.55147 23.1937 8.58111 23.4267C8.27247 23.5006 7.92404 23.5004 7.51986 23.4999H7.43082H3.1847H3.09565C2.69147 23.5004 2.34306 23.5006 2.03441 23.4267C1.06404 23.1937 0.306394 22.4359 0.0734418 21.4657C-0.000663566 21.1569 -0.000330962 20.8086 5.47273e-05 20.4043L0.00010777 20.3153V16.0692L5.47273e-05 15.9802C-0.000330962 15.576 -0.000663566 15.2276 0.0734418 14.9189C0.306394 13.9486 1.06404 13.1909 2.03441 12.958C2.34306 12.8838 2.69147 12.8842 3.09565 12.8846ZM3.1847 14.6538C2.64017 14.6538 2.52358 14.66 2.44743 14.6783C2.12396 14.7559 1.87143 15.0085 1.79377 15.3319C1.77548 15.4081 1.76932 15.5247 1.76932 16.0692V20.3153C1.76932 20.8599 1.77548 20.9765 1.79377 21.0526C1.87143 21.376 2.12396 21.6286 2.44743 21.7063C2.52358 21.7245 2.64017 21.7307 3.1847 21.7307H7.43082C7.97536 21.7307 8.09195 21.7245 8.16808 21.7063C8.49155 21.6286 8.74409 21.376 8.82176 21.0526C8.84003 20.9765 8.84619 20.8599 8.84619 20.3153V16.0692C8.84619 15.5247 8.84003 15.4081 8.82176 15.3319C8.74409 15.0085 8.49155 14.7559 8.16808 14.6783C8.09195 14.66 7.97536 14.6538 7.43082 14.6538H3.1847ZM15.5692 12.8846L15.4802 12.8846C15.076 12.8842 14.7276 12.8838 14.4189 12.958C13.4486 13.1909 12.6909 13.9486 12.458 14.9189C12.3838 15.2276 12.3842 15.576 12.3846 15.9802L12.3846 16.0692V20.3153L12.3846 20.4043C12.3842 20.8086 12.3838 21.1569 12.458 21.4657C12.6909 22.4359 13.4486 23.1937 14.4189 23.4267C14.7276 23.5006 15.076 23.5004 15.4802 23.4999H15.5692H19.8153H19.9043C20.3086 23.5004 20.6569 23.5006 20.9657 23.4267C21.9359 23.1937 22.6937 22.4359 22.9267 21.4657C23.0006 21.1569 23.0004 20.8086 22.9999 20.4043V20.3153V16.0692V15.9802C23.0004 15.576 23.0006 15.2276 22.9267 14.9189C22.6937 13.9486 21.9359 13.1909 20.9657 12.958C20.6569 12.8838 20.3086 12.8842 19.9043 12.8846L19.8153 12.8846H15.5692ZM14.8319 14.6783C14.9081 14.66 15.0247 14.6538 15.5692 14.6538H19.8153C20.3599 14.6538 20.4765 14.66 20.5526 14.6783C20.876 14.7559 21.1286 15.0085 21.2063 15.3319C21.2245 15.4081 21.2307 15.5247 21.2307 16.0692V20.3153C21.2307 20.8599 21.2245 20.9765 21.2063 21.0526C21.1286 21.376 20.876 21.6286 20.5526 21.7063C20.4765 21.7245 20.3599 21.7307 19.8153 21.7307H15.5692C15.0247 21.7307 14.9081 21.7245 14.8319 21.7063C14.5085 21.6286 14.2559 21.376 14.1783 21.0526C14.16 20.9765 14.1538 20.8599 14.1538 20.3153V16.0692C14.1538 15.5247 14.16 15.4081 14.1783 15.3319C14.2559 15.0085 14.5085 14.7559 14.8319 14.6783Z" fill="#1E1E1E"/>
</svg>
