<svg width="19" height="33" viewBox="0 0 19 33" fill="none" xmlns="http://www.w3.org/2000/svg">
<path d="M9.5 0C4.52198 0 0.5 4.026 0.5 9.009V23.991C0.5 28.974 4.52198 33 9.5 33C14.478 33 18.5 28.974 18.5 23.991V9.009C18.5 4.026 14.478 0 9.5 0ZM17.2802 23.991C17.2802 28.314 13.7857 31.812 9.5 31.812C5.21429 31.812 1.71978 28.314 1.71978 23.991V9.009C1.71978 4.686 5.21429 1.188 9.5 1.188C13.7857 1.188 17.2802 4.686 17.2802 9.009V23.991ZM14.0165 25.278L9.76374 29.568C9.5989 29.7 9.4011 29.7 9.23626 29.568L4.98352 25.278C4.81868 25.146 4.81868 24.915 4.98352 24.783L5.84066 23.925C5.97253 23.793 6.2033 23.793 6.33517 23.925L9.26923 26.862C9.4011 26.994 9.63187 26.994 9.76374 26.862L12.6978 23.925C12.8297 23.793 13.0604 23.793 13.1923 23.925L14.0495 24.783C14.1813 24.915 14.1813 25.146 14.0165 25.278Z" fill="#FEFEFE"/>
</svg>
