<svg xmlns="http://www.w3.org/2000/svg" width="16" height="17" fill="none" xmlns:v="https://vecta.io/nano"><path fill-rule="evenodd" d="M15.2 11.7a.8.8 0 0 1 .795.707L16 12.5v1.6a2.4 2.4 0 0 1-2.259 2.396l-.141.004H2.4a2.4 2.4 0 0 1-2.396-2.259L0 14.1v-1.6a.8.8 0 0 1 .8-.8.8.8 0 0 1 .795.707l.005.093v1.6a.8.8 0 0 0 .707.795l.093.005h11.2a.8.8 0 0 0 .795-.707l.005-.093v-1.6a.8.8 0 0 1 .8-.8zM8 .5a.8.8 0 0 1 .8.8v7.668l1.034-1.034a.8.8 0 0 1 1.056-.067l.075.067a.8.8 0 0 1 .066 1.056l-.066.075-2.4 2.4-.035.033-.054.044-.089.057-.09.043-.084.028-.119.023L8 11.7l-.06-.002-.1-.014-.089-.024-.089-.035-.078-.042-.077-.053a.8.8 0 0 1-.072-.064l-2.4-2.4A.8.8 0 0 1 6.09 7.868l.075.067L7.2 8.968V1.3A.8.8 0 0 1 8 .5z" fill="#ac0108"/></svg>