<svg xmlns="http://www.w3.org/2000/svg" width="25" height="24" fill="#0a089a" xmlns:v="https://vecta.io/nano"><path d="M15.349 17.482l-1.633 1.57v-7.029c0-.33-.131-.647-.365-.881s-.551-.365-.881-.365-.647.131-.881.365-.365.551-.365.881v6.966l-1.608-1.62a1.25 1.25 0 0 0-1.77 0 1.25 1.25 0 0 0 0 1.77l3.739 3.739a1.25 1.25 0 0 0 .406.269 1.24 1.24 0 0 0 .478.092c.321-.001.629-.126.86-.349l3.739-3.614a1.24 1.24 0 0 0 .318-.397c.077-.153.123-.32.133-.491a1.23 1.23 0 0 0-.075-.503c-.06-.16-.151-.308-.27-.432a1.24 1.24 0 0 0-.42-.288c-.159-.066-.328-.099-.5-.096s-.34.041-.496.112-.296.174-.41.301zm4.187-11.69a7.48 7.48 0 0 0-2.729-3.645C15.54 1.245 14.025.76 12.47.76a7.48 7.48 0 0 0-7.066 5.031 6.23 6.23 0 0 0-3.838 10.307c.09.159.215.297.365.402a1.26 1.26 0 0 0 .501.209 1.24 1.24 0 0 0 .542-.024c.176-.048.341-.134.481-.252s.252-.266.328-.433a1.25 1.25 0 0 0 .113-.531c-.002-.183-.044-.364-.124-.529a1.26 1.26 0 0 0-.337-.426 3.74 3.74 0 0 1 2.804-6.231h.125c.292.006.576-.091.804-.273s.384-.438.443-.724a4.99 4.99 0 0 1 1.73-2.868c.89-.728 2.005-1.125 3.155-1.125a4.99 4.99 0 0 1 3.155 1.125c.891.727 1.502 1.741 1.73 2.868a1.24 1.24 0 0 0 .443.724c.228.182.512.279.804.273h.075a3.74 3.74 0 0 1 2.804 6.231c-.11.123-.194.267-.248.423s-.076.321-.066.486.054.326.127.473a1.26 1.26 0 0 0 .299.388 1.25 1.25 0 0 0 .822.312c.177 0 .352-.038.513-.111a1.25 1.25 0 0 0 .422-.312 6.23 6.23 0 0 0-3.838-10.381z"/></svg>