<svg width="18" height="16" viewBox="0 0 18 16" fill="none" xmlns="http://www.w3.org/2000/svg">
<path d="M10.5953 11.784L9.46849 12.8679V8.01643C9.46849 7.7883 9.37787 7.56951 9.21655 7.40819C9.05524 7.24688 8.83645 7.15625 8.60831 7.15625C8.38018 7.15625 8.16139 7.24688 8.00007 7.40819C7.83876 7.56951 7.74813 7.7883 7.74813 8.01643V12.8249L6.63849 11.7066C6.55829 11.6264 6.46308 11.5628 6.35829 11.5194C6.2535 11.476 6.14119 11.4536 6.02776 11.4536C5.91434 11.4536 5.80203 11.476 5.69724 11.5194C5.59245 11.5628 5.49724 11.6264 5.41704 11.7066C5.33683 11.7868 5.27321 11.882 5.22981 11.9868C5.1864 12.0916 5.16406 12.2039 5.16406 12.3173C5.16406 12.4308 5.1864 12.5431 5.22981 12.6479C5.27321 12.7527 5.33683 12.8479 5.41704 12.9281L7.99758 15.5086C8.07796 15.5883 8.17328 15.6514 8.27808 15.6942C8.38289 15.737 8.49511 15.7587 8.60831 15.7581C8.82978 15.7572 9.04238 15.6709 9.20184 15.5172L11.7824 13.0227C11.8737 12.9474 11.9484 12.854 12.002 12.7485C12.0555 12.643 12.0867 12.5276 12.0936 12.4094C12.1005 12.2913 12.083 12.173 12.0421 12.062C12.0012 11.9509 11.9378 11.8495 11.856 11.7641C11.7741 11.6786 11.6755 11.611 11.5663 11.5654C11.457 11.5198 11.3396 11.4973 11.2213 11.4992C11.103 11.501 10.9863 11.5273 10.8786 11.5763C10.7709 11.6253 10.6745 11.696 10.5953 11.784Z" fill="#1E1E1E"/>
<path d="M13.4844 3.71524C13.1334 2.70113 12.4751 1.82165 11.6009 1.19918C10.7268 0.576699 9.68033 0.242188 8.6072 0.242188C7.53406 0.242188 6.48762 0.576699 5.61347 1.19918C4.73932 1.82165 4.08095 2.70113 3.72996 3.71524C2.95713 3.81875 2.22698 4.13041 1.61761 4.61688C1.00824 5.10335 0.542584 5.74632 0.270449 6.47702C-0.00168599 7.20772 -0.0700595 7.99866 0.0726425 8.76522C0.215345 9.53178 0.563753 10.2451 1.0806 10.829C1.14303 10.9389 1.22894 11.0338 1.33221 11.1067C1.43548 11.1797 1.55357 11.229 1.67807 11.2512C1.80257 11.2733 1.93042 11.2677 2.05252 11.2348C2.17462 11.2019 2.28795 11.1425 2.38446 11.0608C2.48097 10.979 2.55828 10.8771 2.61088 10.7621C2.66348 10.6471 2.69007 10.5219 2.68878 10.3954C2.68748 10.269 2.65832 10.1444 2.60337 10.0305C2.54842 9.91661 2.46904 9.81623 2.37087 9.73652C2.03808 9.36446 1.82034 8.90386 1.74405 8.41054C1.66775 7.91723 1.73617 7.41237 1.94102 6.95716C2.14586 6.50195 2.47834 6.11592 2.89816 5.84585C3.31797 5.57579 3.80711 5.43328 4.30628 5.43561H4.3923C4.59354 5.43966 4.78983 5.37303 4.947 5.24729C5.10417 5.12155 5.21227 4.94468 5.25248 4.74746C5.41042 3.96966 5.83241 3.27037 6.44693 2.76809C7.06145 2.26581 7.83072 1.99143 8.6244 1.99143C9.41808 1.99143 10.1873 2.26581 10.8019 2.76809C11.4164 3.27037 11.8384 3.96966 11.9963 4.74746C12.0365 4.94468 12.1446 5.12155 12.3018 5.24729C12.459 5.37303 12.6553 5.43966 12.8565 5.43561H12.9081C13.4073 5.43328 13.8964 5.57579 14.3162 5.84585C14.7361 6.11592 15.0685 6.50195 15.2734 6.95716C15.4782 7.41237 15.5466 7.91723 15.4703 8.41054C15.394 8.90386 15.1763 9.36446 14.8435 9.73652C14.7677 9.82149 14.7096 9.92066 14.6724 10.0283C14.6353 10.1359 14.6199 10.2498 14.6271 10.3634C14.6343 10.477 14.6639 10.5881 14.7144 10.6902C14.7648 10.7922 14.835 10.8833 14.9209 10.958C15.0778 11.0963 15.2796 11.1727 15.4887 11.173C15.6108 11.1729 15.7315 11.1467 15.8427 11.0963C15.954 11.0459 16.0532 10.9723 16.1338 10.8806C16.665 10.2977 17.0257 9.5801 17.1765 8.80609C17.3274 8.03209 17.2625 7.23151 16.989 6.49189C16.7155 5.75226 16.244 5.10206 15.6259 4.61236C15.0078 4.12265 14.267 3.81231 13.4844 3.71524Z" fill="#1E1E1E"/>
</svg>
