<svg width="79" height="58" viewBox="0 0 79 58" fill="none" xmlns="http://www.w3.org/2000/svg">
<path d="M17.9558 23.1303C17.0775 23.1303 16.2347 23.262 15.3959 23.3821C15.6676 22.4832 15.9472 21.5689 16.3962 20.7475C16.8452 19.5542 17.5462 18.5197 18.2433 17.4775C18.8261 16.35 19.8541 15.5868 20.6102 14.622C21.4018 13.6844 22.4809 13.0607 23.3355 12.2819C24.1744 11.4683 25.2732 11.0615 26.1475 10.488C27.0612 9.97274 27.8568 9.40321 28.7074 9.132C29.5266 8.7988 30.2434 8.51209 30.8302 8.27188C32.0196 7.78757 32.697 7.50862 32.697 7.50862L30.7869 0C30.7869 0 29.9283 0.201468 28.4357 0.557914C27.6835 0.743886 26.7658 0.960853 25.7222 1.22044C24.6549 1.41416 23.5167 1.94496 22.2486 2.42926C20.9962 2.97943 19.5469 3.35137 18.2 4.23474C16.8452 5.07936 15.2816 5.7845 13.9032 6.91583C12.5681 8.08203 10.9573 9.09325 9.76797 10.5772C8.46832 11.9642 7.18442 13.421 6.18802 15.0792C5.03409 16.66 4.25036 18.3957 3.42331 20.1121C2.67503 21.8285 2.07246 23.5836 1.58017 25.2883C0.646783 28.7055 0.229319 31.9523 0.0678467 34.7303C-0.0660567 37.5121 0.01271 39.8251 0.17812 41.4989C0.237195 42.2892 0.347469 43.0564 0.426236 43.5872C0.493187 44.0095 0.524694 44.2381 0.524694 44.2381L0.62709 44.2148C2.34027 52.0876 9.44109 58 17.9558 58C27.7425 58 35.6783 50.1931 35.6783 40.5651C35.6783 30.9372 27.7425 23.1303 17.9558 23.1303ZM61.2775 23.1303C60.3992 23.1303 59.5564 23.262 58.7176 23.3821C58.9893 22.4832 59.2689 21.5689 59.7179 20.7475C60.1669 19.5542 60.8679 18.5197 61.565 17.4775C62.1479 16.35 63.1758 15.5868 63.9319 14.622C64.7235 13.6844 65.8026 13.0607 66.6572 12.2819C67.4961 11.4683 68.5949 11.0615 69.4692 10.488C70.3829 9.97274 71.1785 9.40321 72.0291 9.132C72.8483 8.7988 73.5651 8.51209 74.1519 8.27188C75.3413 7.78757 76.0187 7.50862 76.0187 7.50862L74.1086 0C74.1086 0 73.25 0.201468 71.7574 0.557914C71.0052 0.743886 70.0875 0.960853 69.0439 1.22044C67.9766 1.41416 66.8384 1.94496 65.5703 2.42926C64.3218 2.9833 62.8686 3.35137 61.5217 4.23861C60.1669 5.08323 58.6034 5.78838 57.2249 6.91971C55.8898 8.0859 54.2791 9.09713 53.0897 10.5772C51.79 11.9642 50.5061 13.421 49.5097 15.0792C48.3558 16.66 47.5721 18.3957 46.745 20.1121C45.9967 21.8285 45.3942 23.5836 44.9019 25.2883C43.9685 28.7055 43.551 31.9523 43.3896 34.7303C43.2557 37.5121 43.3344 39.8251 43.4998 41.4989C43.5589 42.2892 43.6692 43.0564 43.7479 43.5872C43.8149 44.0095 43.8464 44.2381 43.8464 44.2381L43.9488 44.2148C45.662 52.0876 52.7628 58 61.2775 58C71.0643 58 79 50.1931 79 40.5651C79 30.9372 71.0643 23.1303 61.2775 23.1303Z" fill="#AC0108" fill-opacity="0.1"/>
</svg>
