<svg xmlns="http://www.w3.org/2000/svg" width="241" height="196" fill="none" xmlns:v="https://vecta.io/nano"><rect x="77" y="30" width="87" height="87" rx="43.5" fill="#d80009"/><path d="M103 91l17.5-17.5m0 0L138 56m-17.5 17.5L103 56m17.5 17.5L138 91" stroke="#fefefe" stroke-width="10" stroke-linecap="round" stroke-linejoin="round"/><rect x="62" y="15" width="117" height="117" rx="58.5" stroke="#d80009" stroke-opacity=".1" stroke-width="30"/><path d="M12.06 178.36a4.28 4.28 0 0 1-.54 2.1c-.347.653-.9 1.18-1.66 1.58-.747.4-1.693.6-2.84.6H4.68V188h-2.8v-13.96h5.14c1.08 0 2 .187 2.76.56s1.327.887 1.7 1.54c.387.653.58 1.393.58 2.22zm-5.16 2.02c.773 0 1.347-.173 1.72-.52.373-.36.56-.86.56-1.5 0-1.36-.76-2.04-2.28-2.04H4.68v4.06H6.9zm6.428 2.04c0-1.12.22-2.113.66-2.98.453-.867 1.06-1.533 1.82-2 .773-.467 1.633-.7 2.58-.7.827 0 1.547.167 2.16.5.627.333 1.127.753 1.5 1.26v-1.58h2.82V188h-2.82v-1.62c-.36.52-.86.953-1.5 1.3-.627.333-1.353.5-2.18.5-.933 0-1.787-.24-2.56-.72-.76-.48-1.367-1.153-1.82-2.02-.44-.88-.66-1.887-.66-3.02zm8.72.04c0-.68-.133-1.26-.4-1.74-.267-.493-.627-.867-1.08-1.12a2.83 2.83 0 0 0-1.46-.4 2.84 2.84 0 0 0-1.44.38c-.44.253-.8.627-1.08 1.12-.267.48-.4 1.053-.4 1.72s.133 1.253.4 1.76c.28.493.64.873 1.08 1.14.453.267.933.4 1.44.4a2.95 2.95 0 0 0 1.46-.38c.453-.267.813-.64 1.08-1.12.267-.493.4-1.08.4-1.76zm16.155-5.54l-6.86 16.32h-2.98l2.4-5.52-4.44-10.8h3.14l2.86 7.74 2.9-7.74h2.98zm15.269-.16c1.36 0 2.453.42 3.28 1.26.84.827 1.26 1.987 1.26 3.48v6.5h-2.8v-6.12c0-.867-.22-1.527-.66-1.98-.44-.467-1.04-.7-1.8-.7s-1.367.233-1.82.7c-.44.453-.66 1.113-.66 1.98V188h-2.8v-6.12c0-.867-.22-1.527-.66-1.98-.44-.467-1.04-.7-1.8-.7-.773 0-1.387.233-1.84.7-.44.453-.66 1.113-.66 1.98V188h-2.8v-11.08h2.8v1.34c.36-.467.82-.833 1.38-1.1.573-.267 1.2-.4 1.88-.4.867 0 1.64.187 2.32.56a3.79 3.79 0 0 1 1.58 1.56 4.03 4.03 0 0 1 1.56-1.54 4.52 4.52 0 0 1 2.24-.58zm17.497 5.46c0 .4-.027.76-.08 1.08h-8.1c.067.8.347 1.427.84 1.88s1.1.68 1.82.68c1.04 0 1.78-.447 2.22-1.34h3.02c-.32 1.067-.933 1.947-1.84 2.64-.907.68-2.02 1.02-3.34 1.02-1.067 0-2.027-.233-2.88-.7a5.15 5.15 0 0 1-1.98-2.02c-.467-.867-.7-1.867-.7-3 0-1.147.233-2.153.7-3.02s1.12-1.533 1.96-2 1.807-.7 2.9-.7c1.053 0 1.993.227 2.82.68a4.69 4.69 0 0 1 1.94 1.94c.467.827.7 1.78.7 2.86zm-2.9-.8c-.013-.72-.273-1.293-.78-1.72-.507-.44-1.127-.66-1.86-.66-.693 0-1.28.213-1.76.64-.467.413-.753.993-.86 1.74h5.26zm11.084-4.66c1.32 0 2.387.42 3.2 1.26.813.827 1.22 1.987 1.22 3.48v6.5h-2.8v-6.12c0-.88-.22-1.553-.66-2.02-.44-.48-1.04-.72-1.8-.72-.773 0-1.387.24-1.84.72-.44.467-.66 1.14-.66 2.02V188h-2.8v-11.08h2.8v1.38a3.8 3.8 0 0 1 1.42-1.12 4.4 4.4 0 0 1 1.92-.42zm10.343 2.46v5.36c0 .373.087.647.26.82.187.16.493.24.92.24h1.3V188h-1.76c-2.36 0-3.54-1.147-3.54-3.44v-5.34h-1.32v-2.3h1.32v-2.74h2.82v2.74h2.48v2.3h-2.48zm12.019-5.18v8.64c0 .947.247 1.673.74 2.18.493.493 1.187.74 2.08.74.907 0 1.607-.247 2.1-.74.493-.507.74-1.233.74-2.18v-8.64h2.82v8.62c0 1.187-.26 2.193-.78 3.02-.507.813-1.193 1.427-2.06 1.84-.853.413-1.807.62-2.86.62-1.04 0-1.987-.207-2.84-.62a4.75 4.75 0 0 1-2-1.84c-.493-.827-.74-1.833-.74-3.02v-8.62h2.8zm17.325 2.72c1.32 0 2.387.42 3.2 1.26.814.827 1.22 1.987 1.22 3.48v6.5h-2.8v-6.12c0-.88-.22-1.553-.66-2.02-.44-.48-1.04-.72-1.8-.72-.773 0-1.386.24-1.84.72-.44.467-.66 1.14-.66 2.02V188h-2.8v-11.08h2.8v1.38c.374-.48.847-.853 1.42-1.12.587-.28 1.227-.42 1.92-.42zm11.323 11.42c-.907 0-1.72-.16-2.44-.48-.72-.333-1.293-.78-1.72-1.34a3.41 3.41 0 0 1-.68-1.86h2.82c.053.427.26.78.62 1.06.373.28.833.42 1.38.42.533 0 .947-.107 1.24-.32.307-.213.46-.487.46-.82 0-.36-.187-.627-.56-.8-.36-.187-.94-.387-1.74-.6-.827-.2-1.507-.407-2.04-.62-.52-.213-.973-.54-1.36-.98-.373-.44-.56-1.033-.56-1.78a2.91 2.91 0 0 1 .52-1.68c.36-.507.867-.907 1.52-1.2.667-.293 1.447-.44 2.34-.44 1.32 0 2.373.333 3.16 1 .787.653 1.22 1.54 1.3 2.66h-2.68c-.04-.44-.227-.787-.56-1.04-.32-.267-.753-.4-1.3-.4-.507 0-.9.093-1.18.28-.267.187-.4.447-.4.78 0 .373.187.66.56.86.373.187.953.38 1.74.58.8.2 1.46.407 1.98.62s.967.547 1.34 1c.387.44.587 1.027.6 1.76 0 .64-.18 1.213-.54 1.72-.347.507-.853.907-1.52 1.2-.653.28-1.42.42-2.3.42zm17.118-11.26V188h-2.82v-1.4c-.36.48-.833.86-1.42 1.14-.573.267-1.2.4-1.88.4-.866 0-1.633-.18-2.3-.54-.666-.373-1.193-.913-1.58-1.62-.373-.72-.56-1.573-.56-2.56v-6.5h2.8v6.1c0 .88.22 1.56.66 2.04.44.467 1.04.7 1.8.7.774 0 1.38-.233 1.82-.7.44-.48.66-1.16.66-2.04v-6.1h2.82zm2.043 5.54c0-1.147.233-2.147.7-3a4.92 4.92 0 0 1 1.94-2c.827-.48 1.773-.72 2.84-.72 1.373 0 2.507.347 3.4 1.04.907.68 1.513 1.64 1.82 2.88h-3.02c-.16-.48-.433-.853-.82-1.12-.373-.28-.84-.42-1.4-.42-.8 0-1.433.293-1.9.88-.467.573-.7 1.393-.7 2.46 0 1.053.233 1.873.7 2.46.467.573 1.1.86 1.9.86 1.133 0 1.873-.507 2.22-1.52h3.02c-.307 1.2-.913 2.153-1.82 2.86s-2.04 1.06-3.4 1.06c-1.067 0-2.013-.233-2.84-.7a5.09 5.09 0 0 1-1.94-2c-.467-.867-.7-1.873-.7-3.02zm12.031 0c0-1.147.234-2.147.7-3 .467-.867 1.114-1.533 1.94-2 .827-.48 1.774-.72 2.84-.72 1.374 0 2.507.347 3.4 1.04.907.68 1.514 1.64 1.82 2.88h-3.02c-.16-.48-.433-.853-.82-1.12-.373-.28-.84-.42-1.4-.42-.8 0-1.433.293-1.9.88-.466.573-.7 1.393-.7 2.46 0 1.053.234 1.873.7 2.46.467.573 1.1.86 1.9.86 1.134 0 1.874-.507 2.22-1.52h3.02c-.306 1.2-.913 2.153-1.82 2.86s-2.04 1.06-3.4 1.06c-1.066 0-2.013-.233-2.84-.7-.826-.48-1.473-1.147-1.94-2-.466-.867-.7-1.873-.7-3.02zm23.052-.24c0 .4-.027.76-.08 1.08h-8.1c.066.8.346 1.427.84 1.88s1.1.68 1.82.68c1.04 0 1.78-.447 2.22-1.34h3.02c-.32 1.067-.934 1.947-1.84 2.64-.907.68-2.02 1.02-3.34 1.02-1.067 0-2.027-.233-2.88-.7a5.15 5.15 0 0 1-1.98-2.02c-.467-.867-.7-1.867-.7-3 0-1.147.233-2.153.7-3.02a4.88 4.88 0 0 1 1.96-2c.84-.467 1.806-.7 2.9-.7 1.053 0 1.993.227 2.82.68a4.69 4.69 0 0 1 1.94 1.94c.466.827.7 1.78.7 2.86zm-2.9-.8c-.014-.72-.274-1.293-.78-1.72-.507-.44-1.127-.66-1.86-.66-.694 0-1.28.213-1.76.64-.467.413-.754.993-.86 1.74h5.26zm9.183 6.76c-.906 0-1.72-.16-2.44-.48-.72-.333-1.293-.78-1.72-1.34a3.41 3.41 0 0 1-.68-1.86h2.82c.054.427.26.78.62 1.06.374.28.834.42 1.38.42.534 0 .947-.107 1.24-.32.307-.213.46-.487.46-.82 0-.36-.186-.627-.56-.8-.36-.187-.94-.387-1.74-.6-.826-.2-1.506-.407-2.04-.62-.52-.213-.973-.54-1.36-.98-.373-.44-.56-1.033-.56-1.78 0-.613.174-1.173.52-1.68.36-.507.867-.907 1.52-1.2.667-.293 1.447-.44 2.34-.44 1.32 0 2.374.333 3.16 1 .787.653 1.22 1.54 1.3 2.66h-2.68c-.04-.44-.226-.787-.56-1.04-.32-.267-.753-.4-1.3-.4-.506 0-.9.093-1.18.28a.9.9 0 0 0-.4.78c0 .373.187.66.56.86.374.187.954.38 1.74.58.8.2 1.46.407 1.98.62s.967.547 1.34 1c.387.44.587 1.027.6 1.76 0 .64-.18 1.213-.54 1.72-.346.507-.853.907-1.52 1.2-.653.28-1.42.42-2.3.42zm10.899 0c-.907 0-1.72-.16-2.44-.48-.72-.333-1.294-.78-1.72-1.34-.414-.56-.64-1.18-.68-1.86h2.82c.053.427.26.78.62 1.06.373.28.833.42 1.38.42.533 0 .946-.107 1.24-.32.306-.213.46-.487.46-.82 0-.36-.187-.627-.56-.8-.36-.187-.94-.387-1.74-.6-.827-.2-1.507-.407-2.04-.62-.52-.213-.974-.54-1.36-.98-.374-.44-.56-1.033-.56-1.78a2.91 2.91 0 0 1 .52-1.68c.36-.507.866-.907 1.52-1.2.666-.293 1.446-.44 2.34-.44 1.32 0 2.373.333 3.16 1 .786.653 1.22 1.54 1.3 2.66h-2.68c-.04-.44-.227-.787-.56-1.04-.32-.267-.754-.4-1.3-.4-.507 0-.9.093-1.18.28-.267.187-.4.447-.4.78 0 .373.186.66.56.86.373.187.953.38 1.74.58.8.2 1.46.407 1.98.62s.966.547 1.34 1c.386.44.586 1.027.6 1.76 0 .64-.18 1.213-.54 1.72-.347.507-.854.907-1.52 1.2-.654.28-1.42.42-2.3.42zm11.738-8.96h-1.94V188h-2.84v-8.78h-1.26v-2.3h1.26v-.56c0-1.36.387-2.36 1.16-3s1.94-.94 3.5-.9v2.36c-.68-.013-1.153.1-1.42.34s-.4.673-.4 1.3v.46h1.94v2.3zm12.275-2.3V188h-2.82v-1.4a3.77 3.77 0 0 1-1.42 1.14 4.4 4.4 0 0 1-1.88.4c-.867 0-1.634-.18-2.3-.54a4.01 4.01 0 0 1-1.58-1.62c-.374-.72-.56-1.573-.56-2.56v-6.5h2.8v6.1c0 .88.22 1.56.66 2.04.44.467 1.04.7 1.8.7.773 0 1.38-.233 1.82-.7.44-.48.66-1.16.66-2.04v-6.1h2.82zm5.562-3.72V188h-2.8v-14.8h2.8zm6.387.6l-.32 9.66h-2.36l-.34-9.66h3.02zm-1.44 14.34c-.507 0-.927-.153-1.26-.46-.32-.32-.48-.713-.48-1.18s.16-.853.48-1.16c.333-.32.753-.48 1.26-.48.493 0 .9.16 1.22.48.32.307.48.693.48 1.16s-.16.86-.48 1.18c-.32.307-.727.46-1.22.46z" fill="#d80009"/></svg>