<svg xmlns="http://www.w3.org/2000/svg" width="24" height="29" fill="#1e1e1e" xmlns:v="https://vecta.io/nano"><path d="M12 28.327c-1.012 0-1.998-.519-2.672-1.427l-1.31-1.751c-.272-.363-.636-.571-1.025-.597-.389-.013-.778.156-1.09.48l-.739-.662.714.662c-1.868 1.998-3.308 1.842-3.996 1.57C1.181 26.329 0 25.434 0 22.554V7.946C0 2.186 1.661.435 7.096.435h9.808C22.34.435 24 2.186 24 7.946v14.608c0 2.867-1.18 3.762-1.881 4.048-.688.272-2.115.428-3.996-1.57-.311-.337-.687-.519-1.103-.48-.389.026-.765.234-1.038.597l-1.31 1.751c-.675.908-1.66 1.427-2.672 1.427zm-5.085-5.734h.169c.96.052 1.868.558 2.478 1.375l1.31 1.751c.636.843 1.609.843 2.244 0l1.31-1.751c.623-.817 1.518-1.323 2.491-1.375.96-.052 1.92.35 2.621 1.103.986 1.051 1.635 1.181 1.855 1.09.311-.13.649-.882.649-2.231V7.946c0-4.683-.817-5.565-5.15-5.565H7.096c-4.333 0-5.15.882-5.15 5.565v14.608c0 1.362.337 2.115.649 2.231.221.091.869-.039 1.855-1.09.701-.713 1.57-1.103 2.465-1.103zm10.28-13.726H6.817a.98.98 0 0 1-.973-.973.98.98 0 0 1 .973-.973h10.378a.98.98 0 0 1 .973.973.98.98 0 0 1-.973.973zm-1.301 5.19H8.11a.98.98 0 0 1-.973-.973.98.98 0 0 1 .973-.973h7.784a.98.98 0 0 1 .973.973.98.98 0 0 1-.973.973z"/></svg>