<svg width="109" height="80" viewBox="0 0 109 80" fill="none" xmlns="http://www.w3.org/2000/svg">
<path d="M24.7744 31.9038C23.5627 31.9038 22.3998 32.0855 21.2424 32.2512C21.6173 31.0114 22.0031 29.7502 22.6226 28.6172C23.2421 26.9713 24.2093 25.5444 25.1711 24.1069C25.9753 22.5518 27.3936 21.499 28.4369 20.1683C29.5291 18.8751 31.018 18.0147 32.1971 16.9405C33.3546 15.8183 34.8706 15.2572 36.077 14.4663C37.3376 13.7555 38.4353 12.9699 39.609 12.5959C40.7392 12.1363 41.7282 11.7408 42.5379 11.4095C44.1789 10.7415 45.1135 10.3567 45.1135 10.3567L42.4781 0C42.4781 0 41.2935 0.277887 39.2341 0.769537C38.1962 1.02605 36.9301 1.32532 35.4901 1.68336C34.0175 1.95057 32.4471 2.6827 30.6974 3.3507C28.9694 4.10955 26.9697 4.62258 25.1113 5.84102C23.2421 7.00601 21.0848 7.97862 19.1829 9.53908C17.3408 11.1476 15.1184 12.5424 13.4773 14.5892C11.6841 16.5023 9.91268 18.5117 8.53791 20.7989C6.94577 22.9793 5.86442 25.3734 4.7233 27.7408C3.69086 30.1082 2.85947 32.5291 2.18023 34.8804C0.892396 39.5939 0.316402 44.0722 0.0936113 47.9038C-0.0911416 51.7408 0.0175366 54.9312 0.245761 57.2398C0.327269 58.33 0.479419 59.3881 0.588097 60.1202C0.680474 60.7027 0.723944 61.018 0.723944 61.018L0.865226 60.986C3.22898 71.845 13.0263 80 24.7744 80C38.2777 80 49.227 69.2318 49.227 55.9519C49.227 42.672 38.2777 31.9038 24.7744 31.9038ZM84.5474 31.9038C83.3357 31.9038 82.1728 32.0855 81.0154 32.2512C81.3903 31.0114 81.7761 29.7502 82.3956 28.6172C83.0151 26.9713 83.9823 25.5444 84.9441 24.1069C85.7483 22.5518 87.1666 21.499 88.2099 20.1683C89.3021 18.8751 90.791 18.0147 91.9701 16.9405C93.1276 15.8183 94.6436 15.2572 95.8499 14.4663C97.1106 13.7555 98.2083 12.9699 99.382 12.5959C100.512 12.1363 101.501 11.7408 102.311 11.4095C103.952 10.7415 104.887 10.3567 104.887 10.3567L102.251 0C102.251 0 101.066 0.277887 99.007 0.769537C97.9692 1.02605 96.7031 1.32532 95.2631 1.68336C93.7905 1.95057 92.2201 2.6827 90.4704 3.3507C88.7478 4.1149 86.7427 4.62258 84.8843 5.84636C83.0151 7.01136 80.8578 7.98397 78.9559 9.54442C77.1138 11.153 74.8914 12.5478 73.2503 14.5892C71.4571 16.5023 69.6857 18.5117 68.3109 20.7989C66.7188 22.9793 65.6374 25.3734 64.4963 27.7408C63.4639 30.1082 62.6325 32.5291 61.9532 34.8804C60.6654 39.5939 60.0894 44.0722 59.8666 47.9038C59.6819 51.7408 59.7905 54.9312 60.0188 57.2398C60.1003 58.33 60.2524 59.3881 60.3611 60.1202C60.4535 60.7027 60.4969 61.018 60.4969 61.018L60.6382 60.986C63.002 71.845 72.7993 80 84.5474 80C98.0507 80 109 69.2318 109 55.9519C109 42.672 98.0507 31.9038 84.5474 31.9038Z" fill="#AC0108" fill-opacity="0.3"/>
</svg>
