<svg width="27" height="37" viewBox="0 0 27 37" fill="none" xmlns="http://www.w3.org/2000/svg">
<path d="M13.4134 8.48438C12.4369 8.48437 11.4825 8.77391 10.6706 9.31637C9.85877 9.85883 9.22601 10.6299 8.85236 11.5319C8.4787 12.434 8.38094 13.4266 8.57142 14.3843C8.76191 15.3419 9.23209 16.2216 9.92251 16.912C10.6129 17.6024 11.4926 18.0726 12.4502 18.2631C13.4079 18.4536 14.4005 18.3558 15.3026 17.9822C16.2047 17.6085 16.9757 16.9757 17.5181 16.1639C18.0606 15.352 18.3501 14.3976 18.3501 13.4212C18.3486 12.1123 17.828 10.8575 16.9025 9.93197C15.977 9.00647 14.7222 8.48587 13.4134 8.48438ZM13.4134 15.8896C12.9251 15.8896 12.4479 15.7448 12.042 15.4736C11.6361 15.2023 11.3197 14.8168 11.1329 14.3658C10.946 13.9147 10.8971 13.4184 10.9924 12.9396C11.0876 12.4608 11.3227 12.021 11.6679 11.6757C12.0131 11.3305 12.453 11.0954 12.9318 11.0002C13.4106 10.905 13.9069 10.9538 14.358 11.1407C14.809 11.3275 15.1945 11.6439 15.4657 12.0498C15.737 12.4557 15.8817 12.933 15.8817 13.4212C15.881 14.0756 15.6207 14.703 15.1579 15.1657C14.6952 15.6285 14.0678 15.8888 13.4134 15.8896Z" fill="#AC0108"/>
<path d="M22.9012 3.92823C20.5556 1.58329 17.4246 0.190296 14.1124 0.0181053C10.8002 -0.154086 7.54165 0.90673 4.9656 2.99581C2.38955 5.08489 0.678654 8.05415 0.163106 11.3305C-0.352441 14.6069 0.363911 17.958 2.17391 20.7373L11.5003 35.055C11.7079 35.3736 11.9917 35.6353 12.326 35.8165C12.6602 35.9977 13.0345 36.0926 13.4147 36.0926C13.7949 36.0926 14.1692 35.9977 14.5034 35.8165C14.8377 35.6353 15.1215 35.3736 15.3291 35.055L24.6558 20.7373C26.3353 18.1591 27.0775 15.082 26.758 12.0217C26.4386 8.96144 25.0769 6.10395 22.9012 3.92823ZM22.5876 19.3899L13.4147 33.4713L4.2418 19.3899C1.43401 15.0796 2.03622 9.31125 5.6737 5.67361C6.69026 4.65703 7.8971 3.85063 9.22531 3.30045C10.5535 2.75028 11.9771 2.46711 13.4147 2.46711C14.8524 2.46711 16.276 2.75028 17.6042 3.30045C18.9324 3.85063 20.1392 4.65703 21.1558 5.67361C24.7933 9.31125 25.3954 15.0796 22.5876 19.3899Z" fill="#AC0108"/>
</svg>
