<svg width="20" height="26" viewBox="0 0 20 26" fill="none" xmlns="http://www.w3.org/2000/svg">
<path d="M9.99942 6.1123C9.29605 6.1123 8.60848 6.32088 8.02365 6.71165C7.43881 7.10242 6.98299 7.65784 6.71382 8.30767C6.44466 8.9575 6.37423 9.67256 6.51145 10.3624C6.64867 11.0523 6.98738 11.6859 7.48473 12.1833C7.98209 12.6807 8.61577 13.0194 9.30562 13.1566C9.99548 13.2938 10.7105 13.2234 11.3604 12.9542C12.0102 12.685 12.5656 12.2292 12.9564 11.6444C13.3472 11.0596 13.5557 10.372 13.5557 9.66861C13.5547 8.72575 13.1796 7.82181 12.5129 7.15511C11.8462 6.4884 10.9423 6.11338 9.99942 6.1123ZM9.99942 11.4468C9.64774 11.4468 9.30395 11.3425 9.01153 11.1471C8.71912 10.9517 8.49121 10.674 8.35662 10.3491C8.22204 10.0242 8.18683 9.66664 8.25544 9.32171C8.32405 8.97678 8.4934 8.65995 8.74208 8.41127C8.99076 8.16259 9.3076 7.99324 9.65252 7.92462C9.99745 7.85601 10.355 7.89123 10.6799 8.02581C11.0048 8.1604 11.2825 8.38831 11.4779 8.68072C11.6733 8.97314 11.7776 9.31693 11.7776 9.66861C11.777 10.14 11.5895 10.592 11.2562 10.9254C10.9228 11.2587 10.4709 11.4462 9.99942 11.4468Z" fill="#AC0108"/>
<path d="M16.8332 2.82977C15.1436 1.14055 12.8881 0.137084 10.5021 0.0130425C8.11609 -0.110998 5.76871 0.65318 3.913 2.15809C2.0573 3.663 0.824819 5.80196 0.453434 8.16214C0.0820496 10.5223 0.598088 12.9364 1.90195 14.9385L8.62043 25.2525C8.76994 25.482 8.97437 25.6706 9.21517 25.8011C9.45598 25.9316 9.72556 26 9.99947 26C10.2734 26 10.543 25.9316 10.7838 25.8011C11.0246 25.6706 11.229 25.482 11.3785 25.2525L18.0972 14.9385C19.307 13.0813 19.8417 10.8646 19.6116 8.66009C19.3815 6.45554 18.4005 4.3971 16.8332 2.82977ZM16.6073 13.9679L9.9995 24.1117L3.3916 13.9679C1.36895 10.8629 1.80277 6.70754 4.4231 4.08709C5.15539 3.35478 6.02476 2.77387 6.98156 2.37754C7.93836 1.98122 8.96386 1.77723 9.9995 1.77723C11.0351 1.77723 12.0606 1.98122 13.0174 2.37754C13.9742 2.77387 14.8436 3.35478 15.5759 4.08709C18.1962 6.70754 18.63 10.8629 16.6073 13.9679Z" fill="#AC0108"/>
</svg>
