<svg width="16" height="17" viewBox="0 0 16 17" fill="none" xmlns="http://www.w3.org/2000/svg">
<path d="M12.7057 5.63925C12.7057 4.40884 12.2124 3.22883 11.3343 2.35881C10.4562 1.48877 9.26526 1 8.02344 1C6.78162 1 5.59066 1.48877 4.71256 2.35881C3.83446 3.22883 3.34115 4.40884 3.34115 5.63925C3.34115 11.0517 1 12.5981 1 12.5981H15.0469C15.0469 12.5981 12.7057 11.0517 12.7057 5.63925Z" stroke="#9C9C9C" stroke-width="1.2" stroke-linecap="round" stroke-linejoin="round"/>
<path d="M9.372 14.7734C9.2348 14.9931 9.03791 15.1755 8.80091 15.3022C8.56399 15.429 8.29538 15.4958 8.02194 15.4958C7.74849 15.4958 7.47988 15.429 7.24296 15.3022C7.00603 15.1755 6.80907 14.9931 6.67188 14.7734" stroke="#9C9C9C" stroke-width="1.2" stroke-linecap="round" stroke-linejoin="round"/>
</svg>
