<svg xmlns="http://www.w3.org/2000/svg" width="36" height="36" fill="none" stroke="#1e1e1e" stroke-width="2.5" xmlns:v="https://vecta.io/nano"><path d="M6.365 24.818c-2.472-2.474-3.709-3.709-4.168-5.314s-.067-3.309.72-6.715l.453-1.965c.661-2.867.992-4.301 1.973-5.283s2.416-1.312 5.283-1.973l1.965-.454c3.408-.786 5.11-1.179 6.715-.72s2.84 1.698 5.312 4.17l2.928 2.928C31.851 13.796 34 15.946 34 18.618s-2.152 4.824-6.454 9.126-6.453 6.454-9.126 6.454-4.824-2.152-9.126-6.454l-2.928-2.926z"/><path d="M23.422 23.623c.936-.939 1.062-2.331.282-3.114s-2.174-.654-3.112.283-2.33 1.064-3.11.283-.654-2.174.283-3.11m0 0l-.566-.566m.566.566c.53-.531 1.205-.8 1.834-.795m4.389 7.017l-.566-.566c-.64.642-1.496.904-2.222.754" stroke-linecap="round"/><path d="M14.835 15.468a3.2 3.2 0 0 0-4.526-4.525 3.2 3.2 0 0 0 4.526 4.525z"/></svg>