<svg width="81" height="81" viewBox="0 0 81 81" fill="none" xmlns="http://www.w3.org/2000/svg">
<rect x="0.5" width="80" height="81" rx="5" fill="#0A089A" fill-opacity="0.1"/>
<path d="M27.2251 59.4H27.0751C25.7251 59.4 24.6001 58.2 24.6001 56.85V51.825C24.6001 51.375 24.9001 51.075 25.3501 51.075H53.6251V40.125C53.6251 39.675 53.9251 39.375 54.3751 39.375H57.3751C58.2751 39.375 59.1751 39.75 59.7751 40.35L63.5251 44.1C64.1251 44.85 64.5001 45.675 64.5001 46.5V56.85C64.5001 57.825 63.9751 58.725 63.0001 59.175C62.6251 59.325 62.1751 59.175 62.0251 58.875C61.8751 58.5 62.0251 58.05 62.3251 57.9C62.7001 57.675 62.9251 57.3 62.9251 56.925V46.5C62.9251 46.05 62.7001 45.525 62.3251 45.15L58.6501 41.475C58.2001 41.025 57.6751 40.95 57.3001 40.95H55.0501V51.825C55.0501 52.275 54.7501 52.575 54.3001 52.575H26.1001V56.85C26.1001 57.375 26.5501 57.9 27.0751 57.9H27.2251C27.6751 57.9 27.9751 58.2 27.9751 58.65C27.9751 59.1 27.6751 59.4 27.2251 59.4Z" fill="#0A089A"/>
<path d="M49.8751 59.3998H39.9751C39.5251 59.3998 39.2251 59.0998 39.2251 58.6498C39.2251 58.1998 39.5251 57.8998 39.9751 57.8998H49.8751C50.3251 57.8998 50.6251 58.1998 50.6251 58.6498C50.6251 59.0998 50.3251 59.3998 49.8751 59.3998Z" fill="#0A089A"/>
<path d="M33.6001 63.075C30.9001 63.075 28.7251 60.9 28.7251 58.2C28.7251 55.5 30.9001 53.325 33.6001 53.325C36.3001 53.325 38.4751 55.5 38.4751 58.2C38.4751 60.9 36.3001 63.075 33.6001 63.075ZM33.6001 54.825C31.7251 54.825 30.2251 56.325 30.2251 58.2C30.2251 60.075 31.7251 61.575 33.6001 61.575C35.4751 61.575 36.9751 60.075 36.9751 58.2C36.9751 56.325 35.4751 54.825 33.6001 54.825Z" fill="#0A089A"/>
<path d="M56.25 63.075C53.55 63.075 51.375 60.9 51.375 58.2C51.375 55.5 53.55 53.325 56.25 53.325C58.95 53.325 61.125 55.5 61.125 58.2C61.125 60.9 58.95 63.075 56.25 63.075ZM56.25 54.825C54.375 54.825 52.875 56.325 52.875 58.2C52.875 60.075 54.375 61.575 56.25 61.575C58.125 61.575 59.625 60.075 59.625 58.2C59.625 56.325 58.125 54.825 56.25 54.825Z" fill="#0A089A"/>
<path d="M54.225 37.8752C53.775 37.8752 53.475 37.5752 53.475 37.1252V34.7252C53.475 33.6752 52.65 32.8502 51.6 32.8502H41.625C41.175 32.8502 40.875 32.5502 40.875 32.1002C40.875 31.6502 41.175 31.3502 41.625 31.3502H51.6C53.475 31.3502 54.975 32.8502 54.975 34.7252V37.1252C54.975 37.5752 54.675 37.8752 54.225 37.8752Z" fill="#0A089A"/>
<path d="M25.3501 49.575C24.9001 49.575 24.6001 49.275 24.6001 48.825V48C24.6001 47.55 24.9001 47.25 25.3501 47.25C25.8001 47.25 26.1001 47.55 26.1001 48V48.825C26.1001 49.275 25.8001 49.575 25.3501 49.575Z" fill="#0A089A"/>
<path d="M28.125 46.725C27.825 46.725 27.6 46.65 27.375 46.575C24 45.225 21.225 42.525 19.2 38.625C17.4 35.1 16.5 31.125 16.5 26.85V25.275C16.5 24.3 17.175 23.4 18.15 23.175C21.75 22.425 24.6 20.925 26.625 18.675C27 18.225 27.6 18 28.2 18C28.8 18 29.4 18.225 29.775 18.675C31.725 20.925 34.575 22.5 38.25 23.25C39.225 23.475 39.9 24.375 39.9 25.35V26.925C39.9 31.125 39 35.175 37.2 38.625C35.175 42.6 32.4 45.225 29.025 46.575C28.725 46.65 28.425 46.725 28.125 46.725ZM28.2 19.5C28.05 19.5 27.825 19.575 27.75 19.725C25.5 22.2 22.425 23.85 18.525 24.675C18.225 24.75 18 24.975 18 25.275V26.85C18 30.9 18.825 34.575 20.55 37.875C22.425 41.475 24.9 43.95 27.975 45.075H28.05C28.125 45.15 28.275 45.15 28.35 45.075H28.425C31.5 43.95 33.975 41.475 35.85 37.875C37.5 34.65 38.4 30.9 38.4 26.925V25.35C38.4 25.05 38.175 24.825 37.95 24.75C34.05 23.925 30.9 22.2 28.725 19.725C28.5 19.575 28.35 19.5 28.2 19.5Z" fill="#0A089A"/>
<path d="M28.2 43.5749C28.125 43.5749 27.975 43.5749 27.9 43.4999C25.425 42.3749 23.4 40.2749 21.825 37.1249C20.25 34.1249 19.425 30.5249 19.425 26.8499V26.4749C19.425 26.0999 19.65 25.7999 20.025 25.7249C23.1 24.8999 25.725 23.5499 27.75 21.6749C28.05 21.3749 28.5 21.3749 28.8 21.6749C30.75 23.4749 33.3 24.8249 36.525 25.7249C36.8251 25.7999 37.05 26.0999 37.05 26.4749V26.8499C37.05 30.5249 36.225 34.1249 34.65 37.1999C33 40.3499 31.05 42.3749 28.575 43.4999C28.425 43.5749 28.275 43.5749 28.2 43.5749ZM20.925 27.0749C20.925 30.4499 21.75 33.6749 23.175 36.5249C24.525 39.2249 26.175 41.0249 28.2 41.9999C30.15 40.9499 31.8 39.1499 33.225 36.4499C34.65 33.6749 35.4 30.3749 35.475 26.9999C32.55 26.0999 30.15 24.8999 28.2 23.2499C26.175 24.9749 23.775 26.2499 20.925 27.0749Z" fill="#0A089A"/>
<path d="M29.4751 36.6002H26.9251C26.5501 36.6002 26.1751 36.4502 25.9501 36.1502C25.7251 35.8502 25.5751 35.4752 25.7251 35.0252L26.1001 33.3002C25.3501 32.6252 25.0501 31.6502 25.2001 30.6002C25.4251 29.2502 26.4751 28.1252 27.8251 27.9752H28.2751C30.0001 27.9752 31.3501 29.4002 31.3501 31.0502C31.3501 31.8752 30.9751 32.7002 30.3751 33.3002L30.7501 35.0252C30.8251 35.4002 30.7501 35.8502 30.4501 36.1502C30.2251 36.4502 29.8501 36.6002 29.4751 36.6002ZM27.1501 35.1002H29.2501L28.9501 33.6002C28.8001 33.1502 28.9501 32.7002 29.3251 32.3252C29.7001 31.9502 29.9251 31.5002 29.9251 31.0502C29.9251 30.0752 29.1001 29.3252 28.1251 29.4752C27.3751 29.5502 26.8501 30.1502 26.7001 30.9002C26.6251 31.4252 26.7751 31.9502 27.2251 32.3252C27.6751 32.7752 27.6751 33.3002 27.6001 33.6002L27.1501 35.1002Z" fill="#0A089A"/>
</svg>
