<svg width="20" height="19" viewBox="0 0 20 19" fill="none" xmlns="http://www.w3.org/2000/svg">
<path d="M9.05721 18.1138C4.0647 18.1138 0 14.0493 0 9.05691C0 4.06456 4.0647 0 9.05721 0C14.0497 0 18.1144 4.06456 18.1144 9.05691C18.1144 14.0493 14.0497 18.1138 9.05721 18.1138ZM9.05721 1.3254C4.78927 1.3254 1.32544 4.79795 1.32544 9.05691C1.32544 13.3159 4.78927 16.7884 9.05721 16.7884C13.3251 16.7884 16.789 13.3159 16.789 9.05691C16.789 4.79795 13.3251 1.3254 9.05721 1.3254Z" fill="#9C9C9C"/>
<path d="M18.3426 18.9996C18.1747 18.9996 18.0067 18.9377 17.8741 18.8051L16.1063 17.0374C15.85 16.781 15.85 16.3568 16.1063 16.1004C16.3626 15.8441 16.7869 15.8441 17.0433 16.1004L18.8111 17.8682C19.0674 18.1245 19.0674 18.5488 18.8111 18.8051C18.6785 18.9377 18.5106 18.9996 18.3426 18.9996Z" fill="#9C9C9C"/>
</svg>
