<svg xmlns="http://www.w3.org/2000/svg" width="36" height="28" fill="none" xmlns:v="https://vecta.io/nano"><path fill-rule="evenodd" d="M0 4.255c0-.895.355-1.753.988-2.386S2.479.881 3.374.881h20.243c.895 0 1.753.355 2.386.988s.988 1.491.988 2.386v3.374h2.294c.505 0 1.004.114 1.46.334s.856.538 1.172.933l3.331 4.161c.479.599.74 1.343.74 2.11v4.833c0 .895-.355 1.753-.988 2.386s-1.491.988-2.386.988h-1.125a4.5 4.5 0 0 1-4.498 4.498 4.5 4.5 0 0 1-4.498-4.498H11.246a4.5 4.5 0 0 1-1.348 3.221 4.5 4.5 0 0 1-1.493.971c-.557.221-1.153.328-1.753.315s-1.19-.145-1.738-.39-1.041-.596-1.45-1.033a4.5 4.5 0 0 1-1.21-3.275c-.659-.232-1.23-.663-1.633-1.233S0 20.698 0 19.999V4.255zm2.91 16.77c.407-.666.98-1.214 1.662-1.592s1.452-.57 2.232-.561 1.544.223 2.217.617 1.232.958 1.621 1.634h12.452a4.52 4.52 0 0 1 1.646-1.646V4.255c0-.298-.119-.584-.329-.795s-.497-.329-.795-.329H3.374c-.298 0-.584.118-.795.329s-.329.497-.329.795v15.744c0 .216.062.428.179.61s.285.326.482.415zm24.08-2.15a4.5 4.5 0 0 1 3.896 2.249h1.727c.298 0 .584-.119.795-.329s.329-.497.329-.795v-4.836c-.001-.255-.088-.503-.247-.702l-3.329-4.161c-.105-.132-.239-.238-.39-.311s-.318-.111-.487-.112H26.99v8.997zM6.748 21.124a2.25 2.25 0 0 0-2.249 2.249 2.25 2.25 0 0 0 2.249 2.249 2.25 2.25 0 0 0 2.249-2.249 2.25 2.25 0 0 0-2.249-2.249zm20.243 0a2.25 2.25 0 0 0-2.249 2.249 2.25 2.25 0 0 0 2.249 2.249 2.25 2.25 0 0 0 2.249-2.249 2.25 2.25 0 0 0-2.249-2.249z" fill="#1e1e1e"/></svg>