<svg width="275" height="274" viewBox="0 0 275 274" fill="none" xmlns="http://www.w3.org/2000/svg">
<path d="M137.5 50C89.5301 50 50.5 89.0301 50.5 137C50.5 184.97 89.5301 224 137.5 224C185.47 224 224.5 184.97 224.5 137C224.5 89.0301 185.47 50 137.5 50ZM186.124 114.105L130.523 169.271C127.252 172.541 122.019 172.759 118.53 169.489L89.094 142.669C85.6053 139.398 85.3872 133.947 88.4398 130.459C91.7105 126.97 97.1617 126.752 100.65 130.023L123.981 151.391L173.695 101.677C177.184 98.188 182.635 98.188 186.124 101.677C189.613 105.165 189.613 110.617 186.124 114.105Z" fill="#0A089A"/>
<path d="M137.5 25C75.723 25 25.5 75.223 25.5 137C25.5 198.777 75.723 249 137.5 249C199.277 249 249.5 198.777 249.5 137C249.5 75.223 199.277 25 137.5 25Z" stroke="#0A089A" stroke-opacity="0.1" stroke-width="50"/>
</svg>
