<svg width="147" height="147" viewBox="0 0 147 147" fill="none" xmlns="http://www.w3.org/2000/svg">
<path d="M73.5 30C49.515 30 30 49.515 30 73.5C30 97.485 49.515 117 73.5 117C97.485 117 117 97.485 117 73.5C117 49.515 97.485 30 73.5 30ZM97.812 62.0526L70.0113 89.6353C68.3759 91.2707 65.7594 91.3797 64.015 89.7444L49.297 76.3346C47.5526 74.6992 47.4436 71.9737 48.9699 70.2293C50.6053 68.485 53.3308 68.3759 55.0752 70.0113L66.7406 80.6955L91.5977 55.8383C93.3421 54.094 96.0677 54.094 97.812 55.8383C99.5564 57.5827 99.5564 60.3083 97.812 62.0526Z" fill="#13BA00"/>
<path d="M73.5 15C41.2308 15 15 41.2308 15 73.5C15 105.769 41.2308 132 73.5 132C105.769 132 132 105.769 132 73.5C132 41.2308 105.769 15 73.5 15Z" stroke="#13BA00" stroke-opacity="0.1" stroke-width="30"/>
</svg>
