<svg xmlns="http://www.w3.org/2000/svg" width="33" height="33" fill="#1e1e1e" xmlns:v="https://vecta.io/nano"><path d="M22.655 18.336l-6.154-6.154-6.154 6.154 1.544 1.544 3.518-3.518V32.75h2.183V16.362l3.518 3.518 1.544-1.544zm3.67-8.412v-.099A9.84 9.84 0 0 0 16.5 0a9.84 9.84 0 0 0-9.825 9.825v.17a8.34 8.34 0 0 0-4.284 2.232c-.716.695-1.286 1.527-1.675 2.446s-.59 1.907-.591 2.905c0 2.123.873 4.146 2.457 5.695 1.548 1.514 3.639 2.382 5.735 2.382h4.362v-2.183H8.317c-3.201 0-6.009-2.754-6.009-5.894 0-2.884 2.432-5.316 5.536-5.537l1.014-.072V9.825a7.64 7.64 0 1 1 15.284 0v2.186l1.078.014c3.171.04 5.472 2.375 5.472 5.552 0 3.305-2.433 5.894-5.538 5.894h-4.833v2.183h4.833a7.49 7.49 0 0 0 5.536-2.419c1.409-1.515 2.185-3.524 2.185-5.658 0-3.987-2.748-7.111-6.55-7.653z"/></svg>