<svg width="34" height="33" viewBox="0 0 34 33" fill="none" xmlns="http://www.w3.org/2000/svg">
<path d="M23.1551 18.3354L17.0014 12.1816L10.8477 18.3354L12.3915 19.8792L15.9097 16.3609V32.7491H18.093V16.3609L21.6113 19.8792L23.1551 18.3354Z" fill="#1E1E1E"/>
<path d="M26.825 9.92414V9.825C26.825 4.4076 22.4174 0 17 0C11.5826 0 7.175 4.4076 7.175 9.825V9.99496C5.55805 10.3001 4.06743 11.0766 2.89062 12.2267C2.17446 12.9217 1.60497 13.7534 1.21582 14.6724C0.826675 15.5914 0.625773 16.5791 0.625 17.5771C0.625 19.7003 1.49751 21.7229 3.08193 23.2721C4.63005 24.7859 6.72046 25.6542 8.81728 25.6542H13.1792V23.4708H8.81728C5.61624 23.4708 2.80833 20.7168 2.80833 17.5771C2.80833 14.6932 5.24002 12.261 8.34424 12.04L9.35833 11.9677V9.825C9.35833 7.7983 10.1634 5.85462 11.5965 4.42153C13.0296 2.98843 14.9733 2.18333 17 2.18333C19.0267 2.18333 20.9704 2.98843 22.4035 4.42153C23.8366 5.85462 24.6417 7.7983 24.6417 9.825V12.0111L25.7197 12.0247C28.8904 12.0648 31.1917 14.4 31.1917 17.5771C31.1917 20.882 28.759 23.4708 25.6535 23.4708H20.8208V25.6542H25.6535C26.6937 25.6576 27.7232 25.4443 28.6764 25.0278C29.6295 24.6113 30.4855 24.0008 31.1896 23.2352C32.5989 21.72 33.375 19.7107 33.375 17.5771C33.375 13.59 30.6265 10.4658 26.825 9.92414Z" fill="#1E1E1E"/>
</svg>
