<svg width="34" height="33" viewBox="0 0 34 33" fill="none" xmlns="http://www.w3.org/2000/svg">
<path d="M28.5574 4.79531C25.471 1.70156 21.3607 0 16.9926 0C7.97656 0 0.639955 7.33661 0.639955 16.3527C0.639955 19.2328 1.39129 22.0467 2.82031 24.529L0.5 33L9.16987 30.7239C11.5565 32.0277 14.2451 32.7127 16.9853 32.7127H16.9926C26.0013 32.7127 33.5 25.3761 33.5 16.36C33.5 11.992 31.6438 7.88906 28.5574 4.79531ZM16.9926 29.9578C14.5471 29.9578 12.1531 29.3022 10.0685 28.0647L9.575 27.7701L4.43348 29.1181L5.80357 24.1018L5.47946 23.5862C4.11674 21.4205 3.40223 18.9234 3.40223 16.3527C3.40223 8.86138 9.50134 2.76228 17 2.76228C20.6315 2.76228 24.042 4.17656 26.6054 6.74732C29.1688 9.31808 30.7451 12.7286 30.7377 16.36C30.7377 23.8587 24.4839 29.9578 16.9926 29.9578ZM24.4471 19.7779C24.042 19.5717 22.031 18.5846 21.6554 18.452C21.2797 18.3121 21.0071 18.2458 20.7346 18.6583C20.4621 19.0708 19.6813 19.9842 19.4382 20.2641C19.2025 20.5366 18.9594 20.5734 18.5542 20.3672C16.1529 19.1665 14.5766 18.2237 12.9929 15.5056C12.573 14.7837 13.4127 14.8353 14.1935 13.2737C14.3261 13.0011 14.2598 12.7654 14.1567 12.5592C14.0536 12.3529 13.2359 10.342 12.8971 9.52433C12.5656 8.7288 12.2268 8.83929 11.9763 8.82455C11.7406 8.80982 11.4681 8.80982 11.1955 8.80982C10.923 8.80982 10.481 8.91295 10.1054 9.31808C9.72969 9.73058 8.67634 10.7176 8.67634 12.7286C8.67634 14.7395 10.1422 16.6842 10.3411 16.9567C10.5473 17.2292 13.2212 21.3542 17.3241 23.1295C19.917 24.2491 20.9335 24.3449 22.2299 24.1533C23.0181 24.0355 24.646 23.1663 24.9848 22.2087C25.3237 21.2511 25.3237 20.4335 25.2205 20.2641C25.1248 20.0799 24.8522 19.9768 24.4471 19.7779Z" fill="#288F2C"/>
</svg>
